<?xml version="1.0" encoding="UTF-8" standalone="no"?>
<svg
   xmlns:dc="http://purl.org/dc/elements/1.1/"
   xmlns:cc="http://creativecommons.org/ns#"
   xmlns:rdf="http://www.w3.org/1999/02/22-rdf-syntax-ns#"
   xmlns:svg="http://www.w3.org/2000/svg"
   xmlns="http://www.w3.org/2000/svg"
   xmlns:sodipodi="http://sodipodi.sourceforge.net/DTD/sodipodi-0.dtd"
   xmlns:inkscape="http://www.inkscape.org/namespaces/inkscape"
   width="16.763992mm"
   height="10.159995mm"
   viewBox="0 0 16.763993 10.159995"
   version="1.1"
   id="svg1903"
   sodipodi:docname="dip-ic-4.svg"
   inkscape:version="0.92.5 (2060ec1f9f, 2020-04-08)">
  <sodipodi:namedview
     pagecolor="#ffffff"
     bordercolor="#666666"
     borderopacity="1"
     objecttolerance="10"
     gridtolerance="10"
     guidetolerance="10"
     inkscape:pageopacity="0"
     inkscape:pageshadow="2"
     inkscape:window-width="640"
     inkscape:window-height="480"
     id="namedview6578"
     showgrid="false"
     inkscape:zoom="8.37674"
     inkscape:cx="29.590867"
     inkscape:cy="19.199991"
     inkscape:window-x="72"
     inkscape:window-y="27"
     inkscape:window-maximized="0"
     inkscape:current-layer="g1937" />
  <defs
     id="defs1897">
    <linearGradient
       gradientUnits="userSpaceOnUse"
       y1="-335.05099"
       x2="-182.577"
       x1="-192.873"
       gradientTransform="matrix(1,0,0,-1,273,-448.8574)"
       id="SVGID_1_"
       y2="-335.05099">
      <stop
         id="stop2993"
         offset="0"
         style="stop-color:#333333" />
      <stop
         id="stop2995"
         offset="1"
         style="stop-color:#3C3C3C" />
    </linearGradient>
  </defs>
  <metadata
     id="metadata1900">
    <rdf:RDF>
      <cc:Work
         rdf:about="">
        <dc:format>image/svg+xml</dc:format>
        <dc:type
           rdf:resource="http://purl.org/dc/dcmitype/StillImage" />
        <dc:title></dc:title>
      </cc:Work>
    </rdf:RDF>
  </metadata>
  <g
     id="layer1"
     transform="translate(-27.351072,-48.047875)">
    <g
       id="g1943"
       partID="855213770"
       transform="matrix(0.70555522,0,0,0.70555522,-159.7911,44.474047)">
      <g
         id="g1941"
         transform="translate(289.001,5.06527)">
        <g
           id="g1939"
           transform="rotate(90)">
          <g
             id="g1937">
            <rect
               width="14.4"
               height="19.440001"
               x="0"
               y="2.1600001"
               id="rect1891"
               style="fill:#303030" />
            <rect
               width="14.4"
               height="1.7711999"
               x="0"
               y="2.1600001"
               id="rect1893"
               style="fill:#3d3d3d" />
            <rect
               width="14.4"
               height="1.7711999"
               x="0"
               y="19.8288"
               id="rect1895"
               style="fill:#000000" />
            <polygon
               points="14.4,21.6 14.4,2.16 13.86,3.9312 13.86,19.8288 "
               id="polygon1897"
               style="fill:#141414" />
            <polygon
               points="0,21.6 0,2.16 0.54,3.9312 0.54,19.8288 "
               id="polygon1899"
               style="fill:#1f1f1f" />
            <polygon
               points="0.4032,9.7776 0.4032,11.88 3.6,11.88 3.6,8.28 0.54,8.2512 "
               id="polygon1901"
               style="fill:#1c1c1c" />
            <polygon
               points="3.6,11.88 0.4032,11.88 0.4032,13.9824 0.54,15.516 3.6,15.516 "
               id="polygon1903"
               style="fill:#383838" />
            <path
               d="m 0.4032,9.7776 v 4.1976 C 1.4616,13.8528 2.2896,12.9672 2.2896,11.8728 2.2896,10.7784 1.4688,9.9 0.4032,9.7776 Z"
               id="path1905"
               style="fill:#262626" />
            <path
               d="M 0.54,3.9312 V 8.244 c 1.7136,0.324 3.0168,1.8216 3.0168,3.6288 0,1.8072 -1.296,3.312 -3.0168,3.636 v 0.0072 h 3.6 V 3.9312 Z"
               id="path1907"
               style="fill:#303030" />
            <circle
               id="circle1909"
               cx="4.6799998"
               cy="16.898399"
               r="1.4832"
               style="fill:#212121" />
            <rect
               width="2.1600001"
               height="3.1248"
               x="2.52"
               y="20.635201"
               id="rect1913"
               style="fill:#8c8c8c" />
            <g
               width="2.16"
               height="2.16"
               x="2.52"
               y="21.6"
               id="g1915"
               style="fill:#8c8c8c" />
            <polygon
               id="polygon1917"
               points="4.68,22.0752 6.12,21.4128 6.12,20.6352 2.52,20.6352 2.52,22.0752 "
               style="fill:#8c8c8c" />
            <rect
               width="2.1600001"
               height="3.1248"
               x="2.52"
               id="rect1919"
               y="0"
               style="fill:#8c8c8c" />
            <g
               width="2.16"
               height="2.16"
               x="2.52"
               id="g1921"
               style="fill:#8c8c8c" />
            <polygon
               id="polygon1923"
               points="4.68,1.6848 2.52,1.6848 2.52,3.1248 6.12,3.1248 6.12,2.3472 "
               style="fill:#8c8c8c" />
            <rect
               width="2.1600001"
               height="3.1248"
               x="9.7200003"
               y="20.635201"
               id="rect1925"
               style="fill:#8c8c8c" />
            <g
               width="2.16"
               height="2.16"
               x="9.72"
               y="21.6"
               id="g1927"
               style="fill:#8c8c8c" />
            <polygon
               id="polygon1929"
               points="9.72,22.0752 11.88,22.0752 11.88,20.6352 8.28,20.6352 8.28,21.4128 "
               style="fill:#8c8c8c" />
            <rect
               width="2.1600001"
               height="3.1248"
               x="9.7200003"
               y="0"
               id="rect1931"
               style="fill:#8c8c8c" />
            <g
               width="2.16"
               height="2.16"
               x="9.72"
               y="0"
               id="g1933"
               style="fill:#8c8c8c" />
            <polygon
               id="polygon1935"
               points="9.72,1.6848 8.28,2.3472 8.28,3.1248 11.88,3.1248 11.88,1.6848 "
               style="fill:#8c8c8c" />
          </g>
        </g>
      </g>
    </g>
  </g>
</svg>
