<?xml version="1.0" encoding="UTF-8" standalone="no"?>
<svg
   xmlns:dc="http://purl.org/dc/elements/1.1/"
   xmlns:cc="http://creativecommons.org/ns#"
   xmlns:rdf="http://www.w3.org/1999/02/22-rdf-syntax-ns#"
   xmlns:svg="http://www.w3.org/2000/svg"
   xmlns="http://www.w3.org/2000/svg"
   xmlns:sodipodi="http://sodipodi.sourceforge.net/DTD/sodipodi-0.dtd"
   xmlns:inkscape="http://www.inkscape.org/namespaces/inkscape"
   width="16.763992mm"
   height="25.399988mm"
   viewBox="0 0 16.763993 25.399988"
   version="1.1"
   id="svg1903"
   sodipodi:docname="dip-ic-10.svg"
   inkscape:version="0.92.5 (2060ec1f9f, 2020-04-08)">
  <sodipodi:namedview
     pagecolor="#ffffff"
     bordercolor="#666666"
     borderopacity="1"
     objecttolerance="10"
     gridtolerance="10"
     guidetolerance="10"
     inkscape:pageopacity="0"
     inkscape:pageshadow="2"
     inkscape:window-width="640"
     inkscape:window-height="480"
     id="namedview4823"
     showgrid="false"
     inkscape:zoom="3.3802099"
     inkscape:cx="26.502792"
     inkscape:cy="47.999978"
     inkscape:window-x="72"
     inkscape:window-y="27"
     inkscape:window-maximized="0"
     inkscape:current-layer="g2027" />
  <defs
     id="defs1897">
    <linearGradient
       gradientUnits="userSpaceOnUse"
       y1="-335.05099"
       x2="-182.577"
       x1="-192.873"
       gradientTransform="matrix(1,0,0,-1,273,-448.8574)"
       id="SVGID_1_"
       y2="-335.05099">
      <stop
         id="stop2993"
         offset="0"
         style="stop-color:#333333" />
      <stop
         id="stop2995"
         offset="1"
         style="stop-color:#3C3C3C" />
    </linearGradient>
  </defs>
  <metadata
     id="metadata1900">
    <rdf:RDF>
      <cc:Work
         rdf:about="">
        <dc:format>image/svg+xml</dc:format>
        <dc:type
           rdf:resource="http://purl.org/dc/dcmitype/StillImage" />
        <dc:title></dc:title>
      </cc:Work>
    </rdf:RDF>
  </metadata>
  <g
     id="layer1"
     transform="translate(-25.418763,-41.134017)">
    <g
       id="g2033"
       partID="855213810"
       transform="matrix(0.70555522,0,0,0.70555522,-161.08982,-19.243307)">
      <g
         id="g2031"
         transform="translate(288.103,85.5742)">
        <g
           id="g2029"
           transform="rotate(90)">
          <g
             id="g2027">
            <rect
               width="36"
               height="19.440001"
               x="0"
               y="2.1600001"
               id="rect1945"
               style="fill:#303030" />
            <rect
               width="36"
               height="1.7711999"
               x="0"
               y="2.1600001"
               id="rect1947"
               style="fill:#3d3d3d" />
            <rect
               width="36"
               height="1.7711999"
               x="0"
               y="19.8288"
               id="rect1949"
               style="fill:#000000" />
            <polygon
               points="36,21.6 36,2.16 35.46,3.9312 35.46,19.8288 "
               id="polygon1951"
               style="fill:#141414" />
            <polygon
               points="0,21.6 0,2.16 0.54,3.9312 0.54,19.8288 "
               id="polygon1953"
               style="fill:#1f1f1f" />
            <polygon
               points="0.4032,9.7776 0.4032,11.88 3.6,11.88 3.6,8.28 0.54,8.2512 "
               id="polygon1955"
               style="fill:#1c1c1c" />
            <polygon
               points="3.6,11.88 0.4032,11.88 0.4032,13.9824 0.54,15.516 3.6,15.516 "
               id="polygon1957"
               style="fill:#383838" />
            <path
               d="m 0.4032,9.7776 v 4.1976 C 1.4616,13.8528 2.2896,12.9672 2.2896,11.8728 2.2896,10.7784 1.4688,9.9 0.4032,9.7776 Z"
               id="path1959"
               style="fill:#262626" />
            <path
               d="M 0.54,3.9312 V 8.244 c 1.7136,0.324 3.0168,1.8216 3.0168,3.6288 0,1.8072 -1.296,3.312 -3.0168,3.636 v 0.0072 h 3.6 V 3.9312 Z"
               id="path1961"
               style="fill:#303030" />
            <circle
               id="circle1963"
               cx="4.6799998"
               cy="16.898399"
               r="1.4832"
               style="fill:#212121" />
            <text
               x="4.6799998"
               y="11.88"
               font-size="5.76"
               id="text1965"
               style="font-size:5.76000023px;font-family:OCRA;text-anchor:start;fill:#e6e6e6;stroke:none" />
            <rect
               width="2.1600001"
               height="3.1248"
               x="2.52"
               y="20.635201"
               id="rect1967"
               style="fill:#8c8c8c" />
            <g
               width="2.16"
               height="2.16"
               x="2.52"
               y="21.6"
               id="g1969"
               style="fill:#8c8c8c" />
            <polygon
               id="polygon1971"
               points="4.68,22.0752 6.12,21.4128 6.12,20.6352 2.52,20.6352 2.52,22.0752 "
               style="fill:#8c8c8c" />
            <rect
               width="2.1600001"
               height="3.1248"
               x="2.52"
               id="rect1973"
               y="0"
               style="fill:#8c8c8c" />
            <g
               width="2.16"
               height="2.16"
               x="2.52"
               id="g1975"
               style="fill:#8c8c8c" />
            <polygon
               id="polygon1977"
               points="4.68,1.6848 2.52,1.6848 2.52,3.1248 6.12,3.1248 6.12,2.3472 "
               style="fill:#8c8c8c" />
            <rect
               width="2.1600001"
               height="3.1248"
               x="31.32"
               y="20.635201"
               id="rect1979"
               style="fill:#8c8c8c" />
            <g
               width="2.16"
               height="2.16"
               x="31.32"
               y="21.6"
               id="g1981"
               style="fill:#8c8c8c" />
            <polygon
               id="polygon1983"
               points="31.32,22.0752 33.48,22.0752 33.48,20.6352 29.88,20.6352 29.88,21.4128 "
               style="fill:#8c8c8c" />
            <rect
               width="2.1600001"
               height="3.1248"
               x="31.32"
               y="0"
               id="rect1985"
               style="fill:#8c8c8c" />
            <g
               width="2.16"
               height="2.16"
               x="31.32"
               y="0"
               id="g1987"
               style="fill:#8c8c8c" />
            <polygon
               id="polygon1989"
               points="31.32,1.6848 29.88,2.3472 29.88,3.1248 33.48,3.1248 33.48,1.6848 "
               style="fill:#8c8c8c" />
            <rect
               width="2.1600001"
               height="3.1248"
               x="9.7200003"
               y="0"
               id="rect1991"
               style="fill:#8c8c8c" />
            <g
               width="2.16"
               height="2.16"
               x="9.72"
               id="g1993"
               style="fill:#8c8c8c" />
            <polygon
               id="polygon1995"
               points="13.32,2.3472 11.88,1.6848 9.72,1.6848 8.28,2.3472 8.28,3.1248 13.32,3.1248 "
               style="fill:#8c8c8c" />
            <rect
               width="2.1600001"
               height="3.1248"
               x="16.92"
               y="0"
               id="rect1997"
               style="fill:#8c8c8c" />
            <g
               width="2.16"
               height="2.16"
               x="16.92"
               id="g1999"
               style="fill:#8c8c8c" />
            <polygon
               id="polygon2001"
               points="20.52,2.3472 19.08,1.6848 16.92,1.6848 15.48,2.3472 15.48,3.1248 20.52,3.1248 "
               style="fill:#8c8c8c" />
            <rect
               width="2.1600001"
               height="3.1248"
               x="24.120001"
               y="0"
               id="rect2003"
               style="fill:#8c8c8c" />
            <g
               width="2.16"
               height="2.16"
               x="24.12"
               id="g2005"
               style="fill:#8c8c8c" />
            <polygon
               id="polygon2007"
               points="27.72,2.3472 26.28,1.6848 24.12,1.6848 22.68,2.3472 22.68,3.1248 27.72,3.1248 "
               style="fill:#8c8c8c" />
            <rect
               width="2.1600001"
               height="3.1248"
               x="9.7200003"
               y="20.635201"
               id="rect2009"
               style="fill:#8c8c8c" />
            <g
               width="2.16"
               height="2.16"
               x="9.72"
               y="21.6"
               id="g2011"
               style="fill:#8c8c8c" />
            <polygon
               id="polygon2013"
               points="8.28,21.4128 9.72,22.0752 11.88,22.0752 13.32,21.4128 13.32,20.6352 8.28,20.6352 "
               style="fill:#8c8c8c" />
            <rect
               width="2.1600001"
               height="3.1248"
               x="16.92"
               y="20.635201"
               id="rect2015"
               style="fill:#8c8c8c" />
            <g
               width="2.16"
               height="2.16"
               x="16.92"
               y="21.6"
               id="g2017"
               style="fill:#8c8c8c" />
            <polygon
               id="polygon2019"
               points="15.48,21.4128 16.92,22.0752 19.08,22.0752 20.52,21.4128 20.52,20.6352 15.48,20.6352 "
               style="fill:#8c8c8c" />
            <rect
               width="2.1600001"
               height="3.1248"
               x="24.120001"
               y="20.635201"
               id="rect2021"
               style="fill:#8c8c8c" />
            <g
               width="2.16"
               height="2.16"
               x="24.12"
               y="21.6"
               id="g2023"
               style="fill:#8c8c8c" />
            <polygon
               id="polygon2025"
               points="22.68,21.4128 24.12,22.0752 26.28,22.0752 27.72,21.4128 27.72,20.6352 22.68,20.6352 "
               style="fill:#8c8c8c" />
          </g>
        </g>
      </g>
    </g>
  </g>
</svg>
