<?xml version="1.0" encoding="UTF-8" standalone="no"?>
<svg
   xmlns:dc="http://purl.org/dc/elements/1.1/"
   xmlns:cc="http://creativecommons.org/ns#"
   xmlns:rdf="http://www.w3.org/1999/02/22-rdf-syntax-ns#"
   xmlns:svg="http://www.w3.org/2000/svg"
   xmlns="http://www.w3.org/2000/svg"
   xmlns:sodipodi="http://sodipodi.sourceforge.net/DTD/sodipodi-0.dtd"
   xmlns:inkscape="http://www.inkscape.org/namespaces/inkscape"
   width="38"
   height="38"
   viewBox="0 0 10.054166 10.054167"
   version="1.1"
   id="svg8"
   sodipodi:docname="push-button-icon.svg"
   inkscape:version="0.92.5 (2060ec1f9f, 2020-04-08)">
  <sodipodi:namedview
     pagecolor="#ffffff"
     bordercolor="#666666"
     borderopacity="1"
     objecttolerance="10"
     gridtolerance="10"
     guidetolerance="10"
     inkscape:pageopacity="0"
     inkscape:pageshadow="2"
     inkscape:window-width="1608"
     inkscape:window-height="986"
     id="namedview8"
     showgrid="false"
     inkscape:zoom="22.052632"
     inkscape:cx="19"
     inkscape:cy="19"
     inkscape:window-x="72"
     inkscape:window-y="27"
     inkscape:window-maximized="1"
     inkscape:current-layer="g9666" />
  <defs
     id="defs2">
    <linearGradient
       y2="-335.05099"
       id="SVGID_1_"
       gradientTransform="matrix(1,0,0,-1,273,-448.8574)"
       x1="-192.873"
       x2="-182.577"
       y1="-335.05099"
       gradientUnits="userSpaceOnUse">
      <stop
         style="stop-color:#333333"
         offset="0"
         id="stop2993" />
      <stop
         style="stop-color:#3C3C3C"
         offset="1"
         id="stop2995" />
    </linearGradient>
  </defs>
  <metadata
     id="metadata5">
    <rdf:RDF>
      <cc:Work
         rdf:about="">
        <dc:format>image/svg+xml</dc:format>
        <dc:type
           rdf:resource="http://purl.org/dc/dcmitype/StillImage" />
        <dc:title></dc:title>
      </cc:Work>
    </rdf:RDF>
  </metadata>
  <g
     id="g1865"
     transform="matrix(0.2,0,0,0.2,3.97758,-1.753662)">
    <g
       transform="matrix(1.143,0,0,1.143,-5.8601422,12.619639)"
       id="breadboard">
      <g
         transform="matrix(1.3888878,0,0,1.3888878,-233.68754,-0.52397869)"
         partID="855212920"
         id="g2020">
        <g
           transform="translate(167.524)"
           id="g2018"
           style="fill:#000000;fill-opacity:1">
          <g
             id="g2016"
             style="fill:#000000;fill-opacity:1">
            <g
               style="fill:#000000;stroke:#8c8c8c;stroke-width:2.15136003;stroke-linecap:round;fill-opacity:1"
               y2="74.754"
               id="g1980"
               x1="6.287"
               x2="6.287"
               y1="40.565" />
            <g
               style="fill:#000000;stroke:#8c8c8c;stroke-width:2.15136003;stroke-linecap:round;fill-opacity:1"
               y2="74.754"
               id="g1982"
               x1="16.29"
               x2="16.29"
               y1="40.565" />
            <g
               transform="matrix(1.1111117,0,0,1.1111117,-232.83329,-173.17426)"
               partID="855213020"
               id="g3022">
              <g
                 transform="translate(204.632,177.098)"
                 id="g3020">
                <g
                   transform="rotate(-90)"
                   id="g3018">
                  <g
                     id="g3016">
                    <g
                       id="g3014">
                      <linearGradient
                         y2="-335.05099"
                         id="linearGradient3877"
                         gradientTransform="matrix(1,0,0,-1,273,-448.8574)"
                         x1="-192.873"
                         x2="-182.577"
                         y1="-335.05099"
                         gradientUnits="userSpaceOnUse">
                        <stop
                           style="stop-color:#333333"
                           offset="0"
                           id="stop3873" />
                        <stop
                           style="stop-color:#3C3C3C"
                           offset="1"
                           id="stop3875" />
                      </linearGradient>
                      <g
                         transform="rotate(90,382.48774,-83.675605)"
                         partID="855224910"
                         id="g9670">
                        <g
                           transform="translate(466.229,286.413)"
                           id="g9668">
                          <g
                             id="g9666">
                            <path
                               style="fill:#0e0e0e;fill-opacity:1;stroke-width:1.44000006"
                               inkscape:connector-curvature="0"
                               d="m 1.2022495,8.67168 c -1.13682528,0 -1.16844336,-0.39024 -1.16844336,-0.9 L 0.0338191,2.2752 C 0.0309391,1.77264 0.40461622,1.368 1.5414415,1.368 H 22.227042 c 1.148323,0 1.527739,0.40752 1.527739,0.9288 l 4.3e-5,5.48064 c 0.0086,0.50976 -0.389481,0.89568 -1.527739,0.89568 z"
                               id="path21_8_" />
                            <path
                               style="fill:#4a4a4a;fill-opacity:1;stroke-width:1.44000006"
                               inkscape:connector-curvature="0"
                               d="m 1.2022495,7.10208 c -1.13682528,0 -1.16844336,-0.40464 -1.16844336,-0.89856 l 1.296e-5,-6.84864 c -0.00144,-0.4968 0.37223424,-0.9 1.5090624,-0.9 H 22.227042 c 1.151197,0 1.527739,0.40752 1.527739,0.89856 v 6.84864 c 0.0086,0.49536 -0.389481,0.89568 -1.527739,0.89568 z"
                               id="path21_7_" />
                            <g
                               id="g9661"
                               transform="matrix(1.44,0,0,1.44,-5.2335281,-1.56816)">
                              <ellipse
                                 ry="0.48699999"
                                 rx="0.64474398"
                                 cx="5.3565698"
                                 cy="3.0109999"
                                 id="ellipse9657" />
                              <ellipse
                                 ry="0.48699999"
                                 rx="0.64374602"
                                 cx="18.381201"
                                 cy="3.0109999"
                                 id="ellipse9659" />
                            </g>
                            <path
                               style="fill:none;stroke:#333333;stroke-width:0.57487965"
                               inkscape:connector-curvature="0"
                               d="m 18.750536,0.97344 v 4.14864 c 0.0029,0.36864 -0.370797,0.82368 -1.212997,0.82368 H 6.2252719 c -0.8450741,0 -1.194313,-0.45216 -1.1971886,-0.82368 l 1.4e-6,-4.14864"
                               id="path21_10_" />
                            <path
                               style="fill:#353535;fill-opacity:1;stroke-width:1.44000006"
                               inkscape:connector-curvature="0"
                               d="M 6.4509055,5.75424 C 5.5972087,5.75424 5.255154,5.4504 5.2508426,5.06448 l 1.01e-5,-4.28112 c 0,-0.36576 0.2788171,-0.67392 1.1238912,-0.67392 H 17.409565 c 0.850822,0 1.128202,0.32976 1.131077,0.68976 v 4.28688 c 0.0086,0.39024 -0.367978,0.68976 -1.21585,0.68976 z"
                               id="path21_6_" />
                            <path
                               style="fill:#0a0a0a;fill-opacity:1;stroke-width:1.44000006"
                               inkscape:connector-curvature="0"
                               d="m 6.4509055,4.55328 c -0.8536968,0 -1.1957515,-0.3024 -1.2000629,-0.68976 l 1.01e-5,-3.97152 c 0,-0.3672 0.2788171,-0.66816 1.1238912,-0.66816 H 17.409565 c 0.850822,0 1.128202,0.30096 1.131077,0.66816 v 3.98592 c 0.0058,0.39024 -0.367924,0.68976 -1.215871,0.68976 z"
                               id="path21_5_" />
                          </g>
                        </g>
                      </g>
                    </g>
                  </g>
                </g>
              </g>
            </g>
          </g>
        </g>
      </g>
    </g>
  </g>
</svg>
