<?xml version="1.0" encoding="UTF-8" standalone="no"?>
<svg
   xmlns:dc="http://purl.org/dc/elements/1.1/"
   xmlns:cc="http://creativecommons.org/ns#"
   xmlns:rdf="http://www.w3.org/1999/02/22-rdf-syntax-ns#"
   xmlns:svg="http://www.w3.org/2000/svg"
   xmlns="http://www.w3.org/2000/svg"
   xmlns:sodipodi="http://sodipodi.sourceforge.net/DTD/sodipodi-0.dtd"
   xmlns:inkscape="http://www.inkscape.org/namespaces/inkscape"
   id="svg1903"
   version="1.1"
   viewBox="0 0 16.75433 12.455169"
   height="12.455169mm"
   width="16.75433mm"
   sodipodi:docname="push-button-4.svg"
   inkscape:version="0.92.5 (2060ec1f9f, 2020-04-08)">
  <sodipodi:namedview
     pagecolor="#ffffff"
     bordercolor="#666666"
     borderopacity="1"
     objecttolerance="10"
     gridtolerance="10"
     guidetolerance="10"
     inkscape:pageopacity="0"
     inkscape:pageshadow="2"
     inkscape:window-width="1608"
     inkscape:window-height="986"
     id="namedview968"
     showgrid="false"
     inkscape:zoom="5.301322"
     inkscape:cx="63.938849"
     inkscape:cy="10.710341"
     inkscape:window-x="72"
     inkscape:window-y="27"
     inkscape:window-maximized="1"
     inkscape:current-layer="layer1"
     fit-margin-top="0"
     fit-margin-left="0"
     fit-margin-right="0"
     fit-margin-bottom="0" />
  <defs
     id="defs1897">
    <linearGradient
       y2="-335.05099"
       id="SVGID_1_"
       gradientTransform="matrix(1,0,0,-1,273,-448.8574)"
       x1="-192.873"
       x2="-182.577"
       y1="-335.05099"
       gradientUnits="userSpaceOnUse">
      <stop
         style="stop-color:#333333"
         offset="0"
         id="stop2993" />
      <stop
         style="stop-color:#3C3C3C"
         offset="1"
         id="stop2995" />
    </linearGradient>
  </defs>
  <metadata
     id="metadata1900">
    <rdf:RDF>
      <cc:Work
         rdf:about="">
        <dc:format>image/svg+xml</dc:format>
        <dc:type
           rdf:resource="http://purl.org/dc/dcmitype/StillImage" />
        <dc:title></dc:title>
      </cc:Work>
    </rdf:RDF>
  </metadata>
  <g
     transform="translate(-29.031503,-40.436145)"
     id="layer1">
    <g
       transform="matrix(0.7055554,0,0,0.7055554,-115.34771,-72.05504)"
       partID="855213020"
       id="g3022">
      <g
         transform="translate(204.632,177.098)"
         id="g3020">
        <g
           transform="rotate(-90)"
           id="g3018">
          <g
             id="g3016">
            <g
               id="g3014">
              <polygon
                 style="fill:#8c8c8c"
                 points="16.9819,23.7449 14.8219,23.7449 14.8219,15.4706 16.9819,15.4706 "
                 id="polygon2971" />
              <polygon
                 style="fill:#8c8c8c"
                 points="2.58048,8.27496 0.42192,8.27496 0.42192,0.00072 2.58048,0.00072 "
                 id="polygon2973" />
              <polygon
                 style="fill:#8c8c8c"
                 points="16.9819,8.27568 14.8219,8.27568 14.8219,0 16.9819,0 "
                 id="polygon2975" />
              <polygon
                 style="fill:#8c8c8c"
                 points="2.58192,23.7463 0.42264,23.7463 0.42264,15.4706 2.58192,15.4706 "
                 id="polygon2977" />
              <rect
                 width="17.653"
                 x="0.0086399997"
                 height="17.6544"
                 y="3.04704"
                 id="rect2979" />
              <path
                 style="fill:#999999"
                 inkscape:connector-curvature="0"
                 d="m 17.6609,19.2614 c 0,0.79272 -0.64512,1.43928 -1.44,1.43928 l -14.77298,2e-5 c -0.79272,0 -1.43928,-0.64656 -1.43928,-1.43928 V 4.4856 c 0,-0.792 0.64656,-1.43856 1.43928,-1.43856 h 14.7751 c 0.79416,0 1.43784,0.64656 1.43784,1.43856 z"
                 id="path2981" />
              <circle
                 cy="5.6181598"
                 r="1.5292799"
                 cx="2.5797601"
                 id="circle2983" />
              <circle
                 cy="5.6448002"
                 r="1.5292799"
                 cx="15.133"
                 id="circle2985" />
              <circle
                 cy="18.198"
                 r="1.5292799"
                 cx="15.1063"
                 id="circle2987" />
              <circle
                 cy="18.169901"
                 r="1.5292799"
                 cx="2.5531199"
                 id="circle2989" />
              <circle
                 style="fill:#3f3f3f"
                 cy="11.8735"
                 r="5.1479998"
                 cx="8.8344002"
                 id="circle2991" />
              <linearGradient
                 y2="-335.05099"
                 id="linearGradient3877"
                 gradientTransform="matrix(1,0,0,-1,273,-448.8574)"
                 x1="-192.873"
                 x2="-182.577"
                 y1="-335.05099"
                 gradientUnits="userSpaceOnUse">
                <stop
                   style="stop-color:#333333"
                   offset="0"
                   id="stop3873" />
                <stop
                   style="stop-color:#3C3C3C"
                   offset="1"
                   id="stop3875" />
              </linearGradient>
              <circle
                 style="fill:url(#SVGID_1_)"
                 cy="11.8735"
                 r="5.1479998"
                 cx="8.8344002"
                 id="circle2998" />
              <circle
                 style="opacity:0.6"
                 enable-background="new    "
                 cy="12.4855"
                 r="4.5302401"
                 cx="8.9244003"
                 id="circle3000" />
              <circle
                 style="fill:#735348"
                 cy="11.9038"
                 r="4.41504"
                 cx="8.8408804"
                 id="circle3002" />
              <path
                 style="opacity:0.5;fill:#ffffff"
                 inkscape:connector-curvature="0"
                 enable-background="new    "
                 d="M 2.38176,5.53824 C 2.412,5.46624 2.46744,5.4108 2.54592,5.39712 L 2.39472,4.43376 C 2.33712,4.44312 2.27592,4.4352 2.21904,4.45248 L 2.2176,4.44816 C 1.8612,4.55832 1.5948,4.824 1.45872,5.16312 Z"
                 id="path3004" />
              <path
                 style="opacity:0.5;fill:#ffffff"
                 inkscape:connector-curvature="0"
                 enable-background="new    "
                 d="M 14.9335,5.56416 C 14.96302,5.49072 15.01846,5.43528 15.09838,5.42232 L 14.94934,4.45896 C 14.8903,4.46976 14.82982,4.4604 14.77294,4.47768 L 14.77078,4.47264 C 14.41582,4.58208 14.1487,4.84776 14.01262,5.1876 Z"
                 id="path3006" />
              <path
                 style="opacity:0.5;fill:#ffffff"
                 inkscape:connector-curvature="0"
                 enable-background="new    "
                 d="m 14.909,18.1174 c 0.02952,-0.07344 0.08352,-0.1296 0.16344,-0.14184 L 14.9234,17.01292 c -0.05904,0.0108 -0.11952,0.0014 -0.17712,0.01872 l -0.0014,-0.0072 c -0.35568,0.10944 -0.6228,0.37512 -0.75816,0.71568 z"
                 id="path3008" />
              <path
                 style="opacity:0.5;fill:#ffffff"
                 inkscape:connector-curvature="0"
                 enable-background="new    "
                 d="M 2.35512,18.0907 C 2.38464,18.01726 2.44008,17.96398 2.52,17.9503 L 2.3688,16.98622 c -0.05904,0.01224 -0.11952,0.0014 -0.1764,0.01944 l -0.00144,-0.005 c -0.3564,0.108 -0.6228,0.37512 -0.76032,0.71424 z"
                 id="path3010" />
              <path
                 style="opacity:0.6;fill:#ffffff"
                 inkscape:connector-curvature="0"
                 enable-background="new    "
                 d="M 10.4206,7.78896 C 10.0786,7.65576 9.7186,7.56 9.33772,7.5168 8.3902,7.41096 7.483,7.6212 6.70756,8.05104 L 6.61104,8.3016 C 7.4772,7.83864 8.48592,7.62408 9.53568,7.74144 9.85824,7.77888 10.17216,7.85088 10.4724,7.94592 Z"
                 id="path3012" />
            </g>
          </g>
        </g>
      </g>
    </g>
  </g>
</svg>
