<?xml version="1.0" encoding="UTF-8" standalone="no"?>
<!-- Created with matplotlib (https://matplotlib.org/) -->

<svg
   xmlns:dc="http://purl.org/dc/elements/1.1/"
   xmlns:cc="http://creativecommons.org/ns#"
   xmlns:rdf="http://www.w3.org/1999/02/22-rdf-syntax-ns#"
   xmlns:svg="http://www.w3.org/2000/svg"
   xmlns="http://www.w3.org/2000/svg"
   xmlns:xlink="http://www.w3.org/1999/xlink"
   xmlns:sodipodi="http://sodipodi.sourceforge.net/DTD/sodipodi-0.dtd"
   xmlns:inkscape="http://www.inkscape.org/namespaces/inkscape"
   height="264.504pt"
   version="1.1"
   viewBox="0 0 433.62 264.504"
   width="433.62pt"
   id="svg254"
   sodipodi:docname="schematic-rc-scope.svg"
   inkscape:version="0.92.5 (2060ec1f9f, 2020-04-08)">
  <metadata
     id="metadata258">
    <rdf:RDF>
      <cc:Work
         rdf:about="">
        <dc:format>image/svg+xml</dc:format>
        <dc:type
           rdf:resource="http://purl.org/dc/dcmitype/StillImage" />
        <dc:title></dc:title>
      </cc:Work>
    </rdf:RDF>
  </metadata>
  <sodipodi:namedview
     pagecolor="#ffffff"
     bordercolor="#666666"
     borderopacity="1"
     objecttolerance="10"
     gridtolerance="10"
     guidetolerance="10"
     inkscape:pageopacity="0"
     inkscape:pageshadow="2"
     inkscape:window-width="1608"
     inkscape:window-height="986"
     id="namedview256"
     showgrid="false"
     inkscape:zoom="1"
     inkscape:cx="119.41368"
     inkscape:cy="176.336"
     inkscape:window-x="72"
     inkscape:window-y="27"
     inkscape:window-maximized="1"
     inkscape:current-layer="axes_1" />
  <defs
     id="defs4">
    <style
       type="text/css"
       id="style2">
*{stroke-linecap:butt;stroke-linejoin:round;}
  </style>
  </defs>
  <g
     id="figure_1">
    <g
       id="patch_1">
      <path
         d="M 0 264.504  L 433.62 264.504  L 433.62 0  L 0 0  z "
         style="fill:none;"
         id="path6" />
    </g>
    <g
       id="axes_1">
      <g
         id="patch_2">
        <path
           clip-path="url(#p92c7ad25f2)"
           d="M 237.779143 99.822679  L 242.31 104.61  L 235.727434 104.268049  z "
           id="path15" />
      </g>
      <g
         id="patch_3">
        <path
           clip-path="url(#p92c7ad25f2)"
           d="M 102.06 142.86  L 92.4975 152.4225  L 40.86 152.4225  L 40.86 133.2975  L 92.4975 133.2975  z "
           style="fill:#228b22;stroke:#ffffff;stroke-linecap:round;stroke-width:2;"
           id="path18" />
      </g>
      <g
         id="patch_4">
        <path
           clip-path="url(#p92c7ad25f2)"
           d="M 224.46 142.86  L 234.0225 133.2975  L 300.96 133.2975  L 300.96 152.4225  L 234.0225 152.4225  z "
           style="fill:#ffa500;stroke:#ffffff;stroke-linecap:round;stroke-width:2;"
           id="path21" />
      </g>
      <g
         id="patch_5">
        <path
           clip-path="url(#p92c7ad25f2)"
           d="M 71.46 51.06  L 61.8975 60.6225  L 10.26 60.6225  L 10.26 41.4975  L 61.8975 41.4975  z "
           style="fill:#228b22;stroke:#ffffff;stroke-linecap:round;stroke-width:2;"
           id="path24" />
      </g>
      <g
         id="patch_7">
        <path
           clip-path="url(#p92c7ad25f2)"
           d="M 346.86 204.06  L 356.4225 194.4975  L 423.36 194.4975  L 423.36 213.6225  L 356.4225 213.6225  z "
           style="fill:#ffa500;stroke:#ffffff;stroke-linecap:round;stroke-width:2;"
           id="path30" />
      </g>
      <g
         id="patch_8">
        <path
           clip-path="url(#p92c7ad25f2)"
           d="M 346.86 173.46  L 356.4225 163.8975  L 423.36 163.8975  L 423.36 183.0225  L 356.4225 183.0225  z "
           style="stroke:#ffffff;stroke-linecap:round;stroke-width:2;"
           id="path33" />
      </g>
      <g
         id="line2d_3">
        <path
           clip-path="url(#p92c7ad25f2)"
           d="M 224.46 51.06  L 224.46 81.66  L 232.11 84.21  L 216.81 89.31  L 232.11 94.41  L 216.81 99.51  L 232.11 104.61  L 216.81 109.71  L 224.46 112.26  L 224.46 142.86  "
           style="fill:none;stroke:#000000;stroke-linecap:round;stroke-width:2;"
           id="path36" />
      </g>
      <g
         id="line2d_4">
        <path
           clip-path="url(#p92c7ad25f2)"
           d="M 209.16 89.31  L 236.753289 102.045364  "
           style="fill:none;stroke:#000000;stroke-linecap:square;stroke-width:2;"
           id="path39" />
      </g>
      <g
         id="line2d_5">
        <path
           clip-path="url(#p92c7ad25f2)"
           d="M 224.46 142.86  L 209.16 142.86  L 193.86 142.86  "
           style="fill:none;stroke:#000000;stroke-linecap:round;stroke-width:2;"
           id="path42" />
      </g>
      <g
         id="line2d_6">
        <path
           clip-path="url(#p92c7ad25f2)"
           d="M 193.86 142.86  L 163.26 142.86  L 160.71 150.51  L 155.61 135.21  L 150.51 150.51  L 145.41 135.21  L 140.31 150.51  L 135.21 135.21  L 132.66 142.86  L 102.06 142.86  "
           style="fill:none;stroke:#000000;stroke-linecap:round;stroke-width:2;"
           id="path45" />
      </g>
      <g
         id="line2d_7">
        <path
           clip-path="url(#p92c7ad25f2)"
           d="M 224.46 142.86  L 224.46 186.006  M 232.11 186.006  L 216.81 186.006  M 232.11 191.514  L 216.81 191.514  M 224.46 191.514  L 224.46 234.66  "
           style="fill:none;stroke:#000000;stroke-linecap:round;stroke-width:2;"
           id="path48" />
      </g>
      <g
         id="line2d_8">
        <path
           clip-path="url(#p92c7ad25f2)"
           d="M 224.46 234.66  L 224.46 246.9  L 216.81 246.9  L 232.11 246.9  M 219.105 250.572  L 229.815 250.572  M 222.93 254.244  L 225.99 254.244  "
           style="fill:none;stroke:#000000;stroke-linecap:round;stroke-width:2;"
           id="path51" />
      </g>
      <g
         id="line2d_9">
        <path
           clip-path="url(#p92c7ad25f2)"
           d="M 224.46 51.06  L 209.16 51.06  L 193.86 51.06  "
           style="fill:none;stroke:#000000;stroke-linecap:round;stroke-width:2;"
           id="path54" />
      </g>
      <g
         id="line2d_10">
        <path
           clip-path="url(#p92c7ad25f2)"
           d="M 193.86 51.06  L 163.26 51.06  L 160.71 58.71  L 155.61 43.41  L 150.51 58.71  L 145.41 43.41  L 140.31 58.71  L 135.21 43.41  L 132.66 51.06  L 102.06 51.06  "
           style="fill:none;stroke:#000000;stroke-linecap:round;stroke-width:2;"
           id="path57" />
      </g>
      <g
         id="line2d_11">
        <path
           clip-path="url(#p92c7ad25f2)"
           d="M 102.06 51.06  L 86.76 51.06  L 71.46 51.06  "
           style="fill:none;stroke:#000000;stroke-linecap:round;stroke-width:2;"
           id="path60" />
      </g>
      <g
         id="line2d_14">
        <path
           clip-path="url(#p92c7ad25f2)"
           d="M 346.86 234.66  L 346.86 246.9  L 339.21 246.9  L 354.51 246.9  M 341.505 250.572  L 352.215 250.572  M 345.33 254.244  L 348.39 254.244  "
           style="fill:none;stroke:#000000;stroke-linecap:round;stroke-width:2;"
           id="path69" />
      </g>
      <g
         id="line2d_15">
        <path
           clip-path="url(#p92c7ad25f2)"
           d="M 346.86 234.66  L 346.86 219.36  L 346.86 204.06  "
           style="fill:none;stroke:#000000;stroke-linecap:round;stroke-width:2;"
           id="path72" />
      </g>
      <g
         id="line2d_16">
        <path
           clip-path="url(#p92c7ad25f2)"
           d="M 346.86 204.06  L 346.86 188.76  L 346.86 173.46  "
           style="fill:none;stroke:#000000;stroke-linecap:round;stroke-width:2;"
           id="path75" />
      </g>
      <g
         id="text_1">
        <!-- $R_{var}}$ -->
        <defs
           id="defs82">
          <path
             d="M 25.203125 64.796875  L 20.21875 38.921875  L 32.90625 38.921875  Q 40.375 38.921875 44.984375 43.046875  Q 49.609375 47.171875 49.609375 53.8125  Q 49.609375 59.125 46.5 61.953125  Q 43.40625 64.796875 37.59375 64.796875  z M 43.3125 35.015625  Q 46.4375 34.28125 48.515625 31.390625  Q 50.59375 28.515625 53.328125 19.921875  L 59.515625 0  L 49.125 0  L 43.40625 18.703125  Q 41.21875 25.921875 38.328125 28.359375  Q 35.453125 30.8125 29.5 30.8125  L 18.609375 30.8125  L 12.59375 0  L 2.6875 0  L 16.890625 72.90625  L 39.109375 72.90625  Q 49.21875 72.90625 54.609375 68.328125  Q 60.015625 63.765625 60.015625 55.171875  Q 60.015625 47.5625 55.421875 41.984375  Q 50.828125 36.421875 43.3125 35.015625  z "
             id="DejaVuSans-Oblique-82" />
          <path
             d="M 7.171875 54.6875  L 16.703125 54.6875  L 24.703125 8.203125  L 50.875 54.6875  L 60.40625 54.6875  L 29.296875 0  L 17.1875 0  z "
             id="DejaVuSans-Oblique-118" />
          <path
             d="M 53.71875 31.203125  L 47.609375 0  L 38.625 0  L 40.28125 8.296875  Q 36.328125 3.421875 31.265625 1  Q 26.21875 -1.421875 20.015625 -1.421875  Q 13.03125 -1.421875 8.5625 2.84375  Q 4.109375 7.125 4.109375 13.8125  Q 4.109375 23.390625 11.75 28.953125  Q 19.390625 34.515625 32.8125 34.515625  L 45.3125 34.515625  L 45.796875 36.921875  Q 45.90625 37.3125 45.953125 37.765625  Q 46 38.234375 46 39.203125  Q 46 43.5625 42.453125 45.96875  Q 38.921875 48.390625 32.515625 48.390625  Q 28.125 48.390625 23.5 47.265625  Q 18.890625 46.140625 14.015625 43.890625  L 15.578125 52.203125  Q 20.65625 54.109375 25.515625 55.046875  Q 30.375 56 34.90625 56  Q 44.578125 56 49.625 51.796875  Q 54.6875 47.609375 54.6875 39.59375  Q 54.6875 37.984375 54.4375 35.8125  Q 54.203125 33.640625 53.71875 31.203125  z M 44 27.484375  L 35.015625 27.484375  Q 23.96875 27.484375 18.671875 24.53125  Q 13.375 21.578125 13.375 15.375  Q 13.375 11.078125 16.078125 8.640625  Q 18.796875 6.203125 23.578125 6.203125  Q 30.90625 6.203125 36.375 11.453125  Q 41.84375 16.703125 43.609375 25.484375  z "
             id="DejaVuSans-Oblique-97" />
          <path
             d="M 44.578125 46.390625  Q 43.21875 47.125 41.453125 47.515625  Q 39.703125 47.90625 37.703125 47.90625  Q 30.515625 47.90625 25.140625 42.453125  Q 19.78125 37.015625 18.015625 27.875  L 12.5 0  L 3.515625 0  L 14.203125 54.6875  L 23.1875 54.6875  L 21.484375 46.1875  Q 25.046875 50.921875 30 53.453125  Q 34.96875 56 40.578125 56  Q 42.046875 56 43.453125 55.828125  Q 44.875 55.671875 46.296875 55.28125  z "
             id="DejaVuSans-Oblique-114" />
        </defs>
        <g
           transform="translate(175.164 100.823125)scale(0.14 -0.14)"
           id="g92">
          <use
             transform="translate(0 0.09375)"
             xlink:href="#DejaVuSans-Oblique-82"
             id="use84" />
          <use
             transform="translate(69.482422 -16.3125)scale(0.7)"
             xlink:href="#DejaVuSans-Oblique-118"
             id="use86" />
          <use
             transform="translate(110.908203 -16.3125)scale(0.7)"
             xlink:href="#DejaVuSans-Oblique-97"
             id="use88" />
          <use
             transform="translate(153.803711 -16.3125)scale(0.7)"
             xlink:href="#DejaVuSans-Oblique-114"
             id="use90" />
        </g>
      </g>
      <g
         id="text_2">
        <!-- $R_{discharge}$ -->
        <defs
           id="defs102">
          <path
             d="M 41.796875 8.203125  Q 38.1875 3.46875 33.25 1.015625  Q 28.328125 -1.421875 22.3125 -1.421875  Q 14.109375 -1.421875 9.34375 4.171875  Q 4.59375 9.765625 4.59375 19.484375  Q 4.59375 27.59375 7.46875 34.9375  Q 10.359375 42.28125 15.828125 48.09375  Q 19.4375 51.953125 23.96875 53.96875  Q 28.515625 56 33.5 56  Q 38.765625 56 42.796875 53.453125  Q 46.828125 50.921875 49.03125 46.1875  L 54.890625 75.984375  L 63.921875 75.984375  L 49.125 0  L 40.09375 0  z M 13.921875 21.09375  Q 13.921875 14.015625 17.109375 10.0625  Q 20.3125 6.109375 25.984375 6.109375  Q 30.171875 6.109375 33.765625 8.125  Q 37.359375 10.15625 40.09375 14.109375  Q 42.96875 18.21875 44.625 23.578125  Q 46.296875 28.953125 46.296875 34.1875  Q 46.296875 40.96875 43.09375 44.765625  Q 39.890625 48.578125 34.28125 48.578125  Q 30.03125 48.578125 26.359375 46.578125  Q 22.703125 44.578125 20.125 40.828125  Q 17.28125 36.765625 15.59375 31.390625  Q 13.921875 26.03125 13.921875 21.09375  z "
             id="DejaVuSans-Oblique-100" />
          <path
             d="M 18.3125 75.984375  L 27.296875 75.984375  L 25.09375 64.59375  L 16.109375 64.59375  z M 14.203125 54.6875  L 23.1875 54.6875  L 12.5 0  L 3.515625 0  z "
             id="DejaVuSans-Oblique-105" />
          <path
             d="M 50 53.078125  L 48.296875 44.578125  Q 44.734375 46.53125 40.765625 47.5  Q 36.8125 48.484375 32.625 48.484375  Q 25.53125 48.484375 21.453125 46.0625  Q 17.390625 43.65625 17.390625 39.5  Q 17.390625 34.671875 26.859375 32.078125  Q 27.59375 31.890625 27.9375 31.78125  L 30.8125 30.90625  Q 39.796875 28.421875 42.796875 25.6875  Q 45.796875 22.953125 45.796875 18.21875  Q 45.796875 9.515625 38.890625 4.046875  Q 31.984375 -1.421875 20.796875 -1.421875  Q 16.453125 -1.421875 11.671875 -0.578125  Q 6.890625 0.25 1.125 2  L 2.875 11.28125  Q 7.8125 8.734375 12.59375 7.421875  Q 17.390625 6.109375 21.78125 6.109375  Q 28.375 6.109375 32.5 8.9375  Q 36.625 11.765625 36.625 16.109375  Q 36.625 20.796875 25.78125 23.6875  L 24.859375 23.921875  L 21.78125 24.703125  Q 14.9375 26.515625 11.765625 29.46875  Q 8.59375 32.421875 8.59375 37.015625  Q 8.59375 45.75 15.15625 50.875  Q 21.734375 56 33.015625 56  Q 37.453125 56 41.671875 55.265625  Q 45.90625 54.546875 50 53.078125  z "
             id="DejaVuSans-Oblique-115" />
          <path
             d="M 53.609375 52.59375  L 51.8125 43.703125  Q 48.578125 46.046875 44.9375 47.21875  Q 41.3125 48.390625 37.40625 48.390625  Q 33.109375 48.390625 29.21875 46.875  Q 25.34375 45.359375 22.703125 42.578125  Q 18.5 38.328125 16.203125 32.609375  Q 13.921875 26.90625 13.921875 20.796875  Q 13.921875 13.421875 17.609375 9.8125  Q 21.296875 6.203125 28.8125 6.203125  Q 32.515625 6.203125 36.6875 7.328125  Q 40.875 8.453125 45.40625 10.6875  L 43.703125 1.8125  Q 39.796875 0.203125 35.671875 -0.609375  Q 31.546875 -1.421875 27.203125 -1.421875  Q 16.3125 -1.421875 10.453125 4.015625  Q 4.59375 9.46875 4.59375 19.578125  Q 4.59375 28.078125 7.640625 35.234375  Q 10.6875 42.390625 16.703125 48.09375  Q 20.796875 52 26.3125 54  Q 31.84375 56 38.375 56  Q 42.1875 56 45.9375 55.140625  Q 49.703125 54.296875 53.609375 52.59375  z "
             id="DejaVuSans-Oblique-99" />
          <path
             d="M 55.71875 33.015625  L 49.3125 0  L 40.28125 0  L 46.6875 32.671875  Q 47.125 34.96875 47.359375 36.71875  Q 47.609375 38.484375 47.609375 39.5  Q 47.609375 43.609375 45.015625 45.890625  Q 42.4375 48.1875 37.796875 48.1875  Q 30.5625 48.1875 25.265625 43.296875  Q 19.96875 38.421875 18.40625 30.328125  L 12.5 0  L 3.515625 0  L 18.3125 75.984375  L 27.296875 75.984375  L 21.484375 46.09375  Q 24.90625 50.6875 30.21875 53.34375  Q 35.546875 56 41.40625 56  Q 48.640625 56 52.609375 52.09375  Q 56.59375 48.1875 56.59375 41.109375  Q 56.59375 39.359375 56.375 37.359375  Q 56.15625 35.359375 55.71875 33.015625  z "
             id="DejaVuSans-Oblique-104" />
          <path
             d="M 59.625 54.6875  L 50.296875 6.78125  Q 47.609375 -7.125 40.015625 -13.953125  Q 32.421875 -20.796875 19.578125 -20.796875  Q 14.84375 -20.796875 10.78125 -20.09375  Q 6.734375 -19.390625 3.21875 -17.921875  L 4.890625 -9.1875  Q 8.203125 -11.328125 11.90625 -12.34375  Q 15.625 -13.375 19.828125 -13.375  Q 28.375 -13.375 33.859375 -8.703125  Q 39.359375 -4.046875 41.109375 4.6875  L 41.890625 8.796875  Q 38.140625 4.5 33.15625 2.25  Q 28.171875 0 22.40625 0  Q 14.109375 0 9.34375 5.484375  Q 4.59375 10.984375 4.59375 20.609375  Q 4.59375 28.171875 7.46875 35.421875  Q 10.359375 42.671875 15.578125 48.296875  Q 19.046875 52 23.65625 54  Q 28.265625 56 33.296875 56  Q 38.8125 56 42.90625 53.4375  Q 47.015625 50.875 49.03125 46.1875  L 50.59375 54.6875  z M 46.09375 34.625  Q 46.09375 41.265625 42.96875 44.875  Q 39.84375 48.484375 34.078125 48.484375  Q 30.515625 48.484375 27.296875 47.0625  Q 24.078125 45.65625 21.78125 43.109375  Q 18.0625 38.921875 15.984375 33.234375  Q 13.921875 27.546875 13.921875 21.484375  Q 13.921875 14.75 17.0625 11.125  Q 20.21875 7.515625 26.125 7.515625  Q 34.671875 7.515625 40.375 15.25  Q 46.09375 23 46.09375 34.625  z "
             id="DejaVuSans-Oblique-103" />
          <path
             d="M 48.09375 32.234375  Q 48.25 33.015625 48.3125 33.84375  Q 48.390625 34.671875 48.390625 35.5  Q 48.390625 41.453125 44.890625 44.921875  Q 41.40625 48.390625 35.40625 48.390625  Q 28.71875 48.390625 23.578125 44.15625  Q 18.453125 39.9375 15.828125 32.171875  z M 55.90625 25.203125  L 14.109375 25.203125  Q 13.8125 23.34375 13.71875 22.265625  Q 13.625 21.1875 13.625 20.40625  Q 13.625 13.625 17.796875 9.90625  Q 21.96875 6.203125 29.59375 6.203125  Q 35.453125 6.203125 40.671875 7.515625  Q 45.90625 8.84375 50.390625 11.375  L 48.6875 2.484375  Q 43.84375 0.53125 38.6875 -0.4375  Q 33.546875 -1.421875 28.21875 -1.421875  Q 16.84375 -1.421875 10.71875 4.015625  Q 4.59375 9.46875 4.59375 19.484375  Q 4.59375 28.03125 7.640625 35.375  Q 10.6875 42.71875 16.609375 48.484375  Q 20.40625 52.09375 25.65625 54.046875  Q 30.90625 56 36.8125 56  Q 46.09375 56 51.578125 50.4375  Q 57.078125 44.875 57.078125 35.5  Q 57.078125 33.25 56.78125 30.6875  Q 56.5 28.125 55.90625 25.203125  z "
             id="DejaVuSans-Oblique-101" />
        </defs>
        <g
           transform="translate(118.91 127.81)scale(0.14 -0.14)"
           id="g124">
          <use
             transform="translate(0 0.09375)"
             xlink:href="#DejaVuSans-Oblique-82"
             id="use104" />
          <use
             transform="translate(69.482422 -16.3125)scale(0.7)"
             xlink:href="#DejaVuSans-Oblique-100"
             id="use106" />
          <use
             transform="translate(113.916016 -16.3125)scale(0.7)"
             xlink:href="#DejaVuSans-Oblique-105"
             id="use108" />
          <use
             transform="translate(133.364258 -16.3125)scale(0.7)"
             xlink:href="#DejaVuSans-Oblique-115"
             id="use110" />
          <use
             transform="translate(169.833984 -16.3125)scale(0.7)"
             xlink:href="#DejaVuSans-Oblique-99"
             id="use112" />
          <use
             transform="translate(208.320312 -16.3125)scale(0.7)"
             xlink:href="#DejaVuSans-Oblique-104"
             id="use114" />
          <use
             transform="translate(252.685547 -16.3125)scale(0.7)"
             xlink:href="#DejaVuSans-Oblique-97"
             id="use116" />
          <use
             transform="translate(295.581055 -16.3125)scale(0.7)"
             xlink:href="#DejaVuSans-Oblique-114"
             id="use118" />
          <use
             transform="translate(324.360352 -16.3125)scale(0.7)"
             xlink:href="#DejaVuSans-Oblique-103"
             id="use120" />
          <use
             transform="translate(368.793945 -16.3125)scale(0.7)"
             xlink:href="#DejaVuSans-Oblique-101"
             id="use122" />
        </g>
      </g>
      <g
         id="text_3">
        <!-- GPIO_B -->
        <defs
           id="defs133">
          <path
             d="M 59.515625 10.40625  L 59.515625 29.984375  L 43.40625 29.984375  L 43.40625 38.09375  L 69.28125 38.09375  L 69.28125 6.78125  Q 63.578125 2.734375 56.6875 0.65625  Q 49.8125 -1.421875 42 -1.421875  Q 24.90625 -1.421875 15.25 8.5625  Q 5.609375 18.5625 5.609375 36.375  Q 5.609375 54.25 15.25 64.234375  Q 24.90625 74.21875 42 74.21875  Q 49.125 74.21875 55.546875 72.453125  Q 61.96875 70.703125 67.390625 67.28125  L 67.390625 56.78125  Q 61.921875 61.421875 55.765625 63.765625  Q 49.609375 66.109375 42.828125 66.109375  Q 29.4375 66.109375 22.71875 58.640625  Q 16.015625 51.171875 16.015625 36.375  Q 16.015625 21.625 22.71875 14.15625  Q 29.4375 6.6875 42.828125 6.6875  Q 48.046875 6.6875 52.140625 7.59375  Q 56.25 8.5 59.515625 10.40625  z "
             id="DejaVuSans-71" />
          <path
             d="M 19.671875 64.796875  L 19.671875 37.40625  L 32.078125 37.40625  Q 38.96875 37.40625 42.71875 40.96875  Q 46.484375 44.53125 46.484375 51.125  Q 46.484375 57.671875 42.71875 61.234375  Q 38.96875 64.796875 32.078125 64.796875  z M 9.8125 72.90625  L 32.078125 72.90625  Q 44.34375 72.90625 50.609375 67.359375  Q 56.890625 61.8125 56.890625 51.125  Q 56.890625 40.328125 50.609375 34.8125  Q 44.34375 29.296875 32.078125 29.296875  L 19.671875 29.296875  L 19.671875 0  L 9.8125 0  z "
             id="DejaVuSans-80" />
          <path
             d="M 9.8125 72.90625  L 19.671875 72.90625  L 19.671875 0  L 9.8125 0  z "
             id="DejaVuSans-73" />
          <path
             d="M 39.40625 66.21875  Q 28.65625 66.21875 22.328125 58.203125  Q 16.015625 50.203125 16.015625 36.375  Q 16.015625 22.609375 22.328125 14.59375  Q 28.65625 6.59375 39.40625 6.59375  Q 50.140625 6.59375 56.421875 14.59375  Q 62.703125 22.609375 62.703125 36.375  Q 62.703125 50.203125 56.421875 58.203125  Q 50.140625 66.21875 39.40625 66.21875  z M 39.40625 74.21875  Q 54.734375 74.21875 63.90625 63.9375  Q 73.09375 53.65625 73.09375 36.375  Q 73.09375 19.140625 63.90625 8.859375  Q 54.734375 -1.421875 39.40625 -1.421875  Q 24.03125 -1.421875 14.8125 8.828125  Q 5.609375 19.09375 5.609375 36.375  Q 5.609375 53.65625 14.8125 63.9375  Q 24.03125 74.21875 39.40625 74.21875  z "
             id="DejaVuSans-79" />
          <path
             d="M 50.984375 -16.609375  L 50.984375 -23.578125  L -0.984375 -23.578125  L -0.984375 -16.609375  z "
             id="DejaVuSans-95" />
          <path
             d="M 19.671875 34.8125  L 19.671875 8.109375  L 35.5 8.109375  Q 43.453125 8.109375 47.28125 11.40625  Q 51.125 14.703125 51.125 21.484375  Q 51.125 28.328125 47.28125 31.5625  Q 43.453125 34.8125 35.5 34.8125  z M 19.671875 64.796875  L 19.671875 42.828125  L 34.28125 42.828125  Q 41.5 42.828125 45.03125 45.53125  Q 48.578125 48.25 48.578125 53.8125  Q 48.578125 59.328125 45.03125 62.0625  Q 41.5 64.796875 34.28125 64.796875  z M 9.8125 72.90625  L 35.015625 72.90625  Q 46.296875 72.90625 52.390625 68.21875  Q 58.5 63.53125 58.5 54.890625  Q 58.5 48.1875 55.375 44.234375  Q 52.25 40.28125 46.1875 39.3125  Q 53.46875 37.75 57.5 32.78125  Q 61.53125 27.828125 61.53125 20.40625  Q 61.53125 10.640625 54.890625 5.3125  Q 48.25 0 35.984375 0  L 9.8125 0  z "
             id="DejaVuSans-66" />
        </defs>
        <g
           style="fill:#ffffff;"
           transform="translate(49.583437 145.898438)scale(0.12 -0.12)"
           id="g147">
          <use
             xlink:href="#DejaVuSans-71"
             id="use135" />
          <use
             x="77.490234"
             xlink:href="#DejaVuSans-80"
             id="use137" />
          <use
             x="137.792969"
             xlink:href="#DejaVuSans-73"
             id="use139" />
          <use
             x="167.285156"
             xlink:href="#DejaVuSans-79"
             id="use141" />
          <use
             x="245.996094"
             xlink:href="#DejaVuSans-95"
             id="use143" />
          <use
             x="295.996094"
             xlink:href="#DejaVuSans-66"
             id="use145" />
        </g>
      </g>
      <g
         id="text_4">
        <!-- 1+ -->
        <defs
           id="defs152">
          <path
             d="M 12.40625 8.296875  L 28.515625 8.296875  L 28.515625 63.921875  L 10.984375 60.40625  L 10.984375 69.390625  L 28.421875 72.90625  L 38.28125 72.90625  L 38.28125 8.296875  L 54.390625 8.296875  L 54.390625 0  L 12.40625 0  z "
             id="DejaVuSans-49" />
          <path
             d="M 46 62.703125  L 46 35.5  L 73.1875 35.5  L 73.1875 27.203125  L 46 27.203125  L 46 0  L 37.796875 0  L 37.796875 27.203125  L 10.59375 27.203125  L 10.59375 35.5  L 37.796875 35.5  L 37.796875 62.703125  z "
             id="DejaVuSans-43" />
        </defs>
        <g
           style="fill:#ffffff;"
           transform="translate(253.864687 146.17125)scale(0.12 -0.12)"
           id="g158">
          <use
             xlink:href="#DejaVuSans-49"
             id="use154" />
          <use
             x="63.623047"
             xlink:href="#DejaVuSans-43"
             id="use156" />
        </g>
      </g>
      <g
         id="text_5">
        <!-- C -->
        <defs
           id="defs162">
          <path
             d="M 64.40625 67.28125  L 64.40625 56.890625  Q 59.421875 61.53125 53.78125 63.8125  Q 48.140625 66.109375 41.796875 66.109375  Q 29.296875 66.109375 22.65625 58.46875  Q 16.015625 50.828125 16.015625 36.375  Q 16.015625 21.96875 22.65625 14.328125  Q 29.296875 6.6875 41.796875 6.6875  Q 48.140625 6.6875 53.78125 8.984375  Q 59.421875 11.28125 64.40625 15.921875  L 64.40625 5.609375  Q 59.234375 2.09375 53.4375 0.328125  Q 47.65625 -1.421875 41.21875 -1.421875  Q 24.65625 -1.421875 15.125 8.703125  Q 5.609375 18.84375 5.609375 36.375  Q 5.609375 53.953125 15.125 64.078125  Q 24.65625 74.21875 41.21875 74.21875  Q 47.75 74.21875 53.53125 72.484375  Q 59.328125 70.75 64.40625 67.28125  z "
             id="DejaVuSans-67" />
        </defs>
        <g
           transform="translate(203.974062 192.623125)scale(0.14 -0.14)"
           id="g166">
          <use
             xlink:href="#DejaVuSans-67"
             id="use164" />
        </g>
      </g>
      <g
         id="text_6">
        <!-- $R_{charge}}$ -->
        <g
           transform="translate(125.91 36.01)scale(0.14 -0.14)"
           id="g183">
          <use
             transform="translate(0 0.09375)"
             xlink:href="#DejaVuSans-Oblique-82"
             id="use169" />
          <use
             transform="translate(69.482422 -16.3125)scale(0.7)"
             xlink:href="#DejaVuSans-Oblique-99"
             id="use171" />
          <use
             transform="translate(107.96875 -16.3125)scale(0.7)"
             xlink:href="#DejaVuSans-Oblique-104"
             id="use173" />
          <use
             transform="translate(152.333984 -16.3125)scale(0.7)"
             xlink:href="#DejaVuSans-Oblique-97"
             id="use175" />
          <use
             transform="translate(195.229492 -16.3125)scale(0.7)"
             xlink:href="#DejaVuSans-Oblique-114"
             id="use177" />
          <use
             transform="translate(224.008789 -16.3125)scale(0.7)"
             xlink:href="#DejaVuSans-Oblique-103"
             id="use179" />
          <use
             transform="translate(268.442383 -16.3125)scale(0.7)"
             xlink:href="#DejaVuSans-Oblique-101"
             id="use181" />
        </g>
      </g>
      <g
         id="text_7">
        <!-- GPIO_A -->
        <defs
           id="defs187">
          <path
             d="M 34.1875 63.1875  L 20.796875 26.90625  L 47.609375 26.90625  z M 28.609375 72.90625  L 39.796875 72.90625  L 67.578125 0  L 57.328125 0  L 50.6875 18.703125  L 17.828125 18.703125  L 11.1875 0  L 0.78125 0  z "
             id="DejaVuSans-65" />
        </defs>
        <g
           style="fill:#ffffff;"
           transform="translate(18.995625 54.098437)scale(0.12 -0.12)"
           id="g201">
          <use
             xlink:href="#DejaVuSans-71"
             id="use189" />
          <use
             x="77.490234"
             xlink:href="#DejaVuSans-80"
             id="use191" />
          <use
             x="137.792969"
             xlink:href="#DejaVuSans-73"
             id="use193" />
          <use
             x="167.285156"
             xlink:href="#DejaVuSans-79"
             id="use195" />
          <use
             x="245.996094"
             xlink:href="#DejaVuSans-95"
             id="use197" />
          <use
             x="295.996094"
             xlink:href="#DejaVuSans-65"
             id="use199" />
        </g>
      </g>
      <g
         id="text_8">
        <!-- DIO0 -->
        <defs
           id="defs206">
          <path
             d="M 19.671875 64.796875  L 19.671875 8.109375  L 31.59375 8.109375  Q 46.6875 8.109375 53.6875 14.9375  Q 60.6875 21.78125 60.6875 36.53125  Q 60.6875 51.171875 53.6875 57.984375  Q 46.6875 64.796875 31.59375 64.796875  z M 9.8125 72.90625  L 30.078125 72.90625  Q 51.265625 72.90625 61.171875 64.09375  Q 71.09375 55.28125 71.09375 36.53125  Q 71.09375 17.671875 61.125 8.828125  Q 51.171875 0 30.078125 0  L 9.8125 0  z "
             id="DejaVuSans-68" />
          <path
             d="M 31.78125 66.40625  Q 24.171875 66.40625 20.328125 58.90625  Q 16.5 51.421875 16.5 36.375  Q 16.5 21.390625 20.328125 13.890625  Q 24.171875 6.390625 31.78125 6.390625  Q 39.453125 6.390625 43.28125 13.890625  Q 47.125 21.390625 47.125 36.375  Q 47.125 51.421875 43.28125 58.90625  Q 39.453125 66.40625 31.78125 66.40625  z M 31.78125 74.21875  Q 44.046875 74.21875 50.515625 64.515625  Q 56.984375 54.828125 56.984375 36.375  Q 56.984375 17.96875 50.515625 8.265625  Q 44.046875 -1.421875 31.78125 -1.421875  Q 19.53125 -1.421875 13.0625 8.265625  Q 6.59375 17.96875 6.59375 36.375  Q 6.59375 54.828125 13.0625 64.515625  Q 19.53125 74.21875 31.78125 74.21875  z "
             id="DejaVuSans-48" />
        </defs>
      </g>
      <g
         id="text_9">
        <!-- 1- -->
        <defs
           id="defs220">
          <path
             d="M 4.890625 31.390625  L 31.203125 31.390625  L 31.203125 23.390625  L 4.890625 23.390625  z "
             id="DejaVuSans-45" />
        </defs>
        <g
           style="fill:#ffffff;"
           transform="translate(379.127812 207.37125)scale(0.12 -0.12)"
           id="g226">
          <use
             xlink:href="#DejaVuSans-49"
             id="use222" />
          <use
             x="63.623047"
             xlink:href="#DejaVuSans-45"
             id="use224" />
        </g>
      </g>
      <g
         id="text_10">
        <!-- ⬇ GND -->
        <defs
           id="defs232">
          <path
             d="M 17.09375 22.3125  L 30.421875 22.3125  L 30.421875 72.90625  L 53.375 72.90625  L 53.375 22.3125  L 66.703125 22.3125  L 41.890625 -2.484375  z "
             id="DejaVuSans-11015" />
          <path
             id="DejaVuSans-32" />
          <path
             d="M 9.8125 72.90625  L 23.09375 72.90625  L 55.421875 11.921875  L 55.421875 72.90625  L 64.984375 72.90625  L 64.984375 0  L 51.703125 0  L 19.390625 60.984375  L 19.390625 0  L 9.8125 0  z "
             id="DejaVuSans-78" />
        </defs>
        <g
           style="fill:#ffffff;"
           transform="translate(364.4175 176.77125)scale(0.12 -0.12)"
           id="g244">
          <use
             xlink:href="#DejaVuSans-11015"
             id="use234" />
          <use
             x="83.789062"
             xlink:href="#DejaVuSans-32"
             id="use236" />
          <use
             x="115.576172"
             xlink:href="#DejaVuSans-71"
             id="use238" />
          <use
             x="193.066406"
             xlink:href="#DejaVuSans-78"
             id="use240" />
          <use
             x="267.871094"
             xlink:href="#DejaVuSans-68"
             id="use242" />
        </g>
      </g>
    </g>
  </g>
  <defs
     id="defs252">
    <clipPath
       id="p92c7ad25f2">
      <rect
         height="250.104"
         width="419.22"
         x="7.2"
         y="7.2"
         id="rect249" />
    </clipPath>
  </defs>
</svg>
