<?xml version="1.0" encoding="UTF-8" standalone="no"?>
<svg
   xmlns:dc="http://purl.org/dc/elements/1.1/"
   xmlns:cc="http://creativecommons.org/ns#"
   xmlns:rdf="http://www.w3.org/1999/02/22-rdf-syntax-ns#"
   xmlns:svg="http://www.w3.org/2000/svg"
   xmlns="http://www.w3.org/2000/svg"
   xmlns:sodipodi="http://sodipodi.sourceforge.net/DTD/sodipodi-0.dtd"
   xmlns:inkscape="http://www.inkscape.org/namespaces/inkscape"
   version="1.1"
   viewBox="0 0 799.99998 499.99998"
   stroke-miterlimit="10"
   id="svg1014"
   sodipodi:docname="ntp.svg"
   width="800"
   height="500"
   style="fill:none;stroke:none;stroke-linecap:square;stroke-miterlimit:10"
   inkscape:version="0.92.5 (2060ec1f9f, 2020-04-08)">
  <metadata
     id="metadata1020">
    <rdf:RDF>
      <cc:Work
         rdf:about="">
        <dc:format>image/svg+xml</dc:format>
        <dc:type
           rdf:resource="http://purl.org/dc/dcmitype/StillImage" />
        <dc:title></dc:title>
      </cc:Work>
    </rdf:RDF>
  </metadata>
  <defs
     id="defs1018" />
  <sodipodi:namedview
     pagecolor="#ffffff"
     bordercolor="#666666"
     borderopacity="1"
     objecttolerance="10"
     gridtolerance="10"
     guidetolerance="10"
     inkscape:pageopacity="0"
     inkscape:pageshadow="2"
     inkscape:window-width="1608"
     inkscape:window-height="986"
     id="namedview1016"
     showgrid="false"
     inkscape:zoom="0.84314833"
     inkscape:cx="493.38887"
     inkscape:cy="314.77167"
     inkscape:window-x="72"
     inkscape:window-y="27"
     inkscape:window-maximized="1"
     inkscape:current-layer="g1012" />
  <clipPath
     id="p.0">
    <path
       d="M 0,0 H 960.68506 V 629.54333 H 0 Z"
       id="path815"
       inkscape:connector-curvature="0"
       style="clip-rule:nonzero" />
  </clipPath>
  <g
     clip-path="url(#p.0)"
     id="g1012"
     transform="translate(0,-129.54333)">
    <path
       d="M 0,0 H 960.68506 V 629.54333 H 0 Z"
       id="path818"
       inkscape:connector-curvature="0"
       style="fill:#000000;fill-opacity:0;fill-rule:evenodd" />
    <path
       d="m 207.48688,203.88451 v 410.3937"
       id="path820"
       inkscape:connector-curvature="0"
       style="fill:#000000;fill-opacity:0;fill-rule:evenodd" />
    <path
       d="m 207.48688,203.88451 v 386.3937"
       id="path822"
       inkscape:connector-curvature="0"
       style="fill-rule:evenodd;stroke:#38761d;stroke-width:4;stroke-linecap:butt;stroke-linejoin:round" />
    <path
       d="m 200.87994,590.27823 6.60693,18.15237 6.60694,-18.15237 z"
       id="path824"
       inkscape:connector-curvature="0"
       style="fill:#38761d;fill-rule:evenodd;stroke:#38761d;stroke-width:4;stroke-linecap:butt" />
    <path
       d="m 596.85693,207.43044 v 410.3937"
       id="path826"
       inkscape:connector-curvature="0"
       style="fill:#000000;fill-opacity:0;fill-rule:evenodd" />
    <path
       d="m 596.85693,207.43044 v 386.3937"
       id="path828"
       inkscape:connector-curvature="0"
       style="fill-rule:evenodd;stroke:#674ea7;stroke-width:4;stroke-linecap:butt;stroke-linejoin:round" />
    <path
       d="m 590.25,593.82416 6.60693,18.15237 6.60694,-18.15237 z"
       id="path830"
       inkscape:connector-curvature="0"
       style="fill:#674ea7;fill-rule:evenodd;stroke:#674ea7;stroke-width:4;stroke-linecap:butt" />
    <path
       d="m 162.80185,139.08661 h 98.74014 v 48.34647 h -98.74014 z"
       id="path832"
       inkscape:connector-curvature="0"
       style="fill:#000000;fill-opacity:0;fill-rule:evenodd" />
    <path
       d="m 189.72116,152.75661 q 1.45312,0 2.51562,0.42188 1.07813,0.40625 1.95313,1.25 l -1.40625,1.65625 q -1.32813,-1.07813 -2.84375,-1.07813 -0.79688,0 -1.26563,0.32813 -0.46875,0.3125 -0.46875,0.9375 0,0.42187 0.20313,0.70312 0.20312,0.26563 0.71875,0.51563 0.53125,0.23437 1.57812,0.5625 1.98438,0.64062 2.90625,1.5625 0.9375,0.92187 0.9375,2.625 0,1.20312 -0.625,2.14062 -0.60937,0.92188 -1.76562,1.4375 -1.15625,0.5 -2.73438,0.5 -1.59375,0 -2.8125,-0.5 -1.21875,-0.5 -2.09375,-1.34375 l 1.54688,-1.70312 q 0.75,0.64062 1.53125,0.96875 0.79687,0.3125 1.73437,0.3125 0.95313,0 1.5,-0.42188 0.54688,-0.42187 0.54688,-1.17187 0,-0.48438 -0.20313,-0.8125 -0.20312,-0.32813 -0.71875,-0.57813 -0.5,-0.26562 -1.4375,-0.5625 -2.15625,-0.65625 -3.0625,-1.60937 -0.90625,-0.95313 -0.90625,-2.40625 0,-1.125 0.59375,-1.96875 0.60938,-0.84375 1.67188,-1.29688 1.0625,-0.46875 2.40625,-0.46875 z m 15.09326,8.09375 q 0,0.625 -0.0625,1.07813 h -6.14062 q 0.15625,1.25 0.71875,1.75 0.5625,0.5 1.54687,0.5 0.59375,0 1.15625,-0.20313 0.5625,-0.21875 1.21875,-0.67187 l 1.20313,1.64062 q -1.73438,1.375 -3.85938,1.375 -2.40625,0 -3.70312,-1.40625 -1.28125,-1.42187 -1.28125,-3.8125 0,-1.51562 0.53125,-2.71875 0.54687,-1.20312 1.59375,-1.89062 1.04687,-0.70313 2.5,-0.70313 2.15625,0 3.35937,1.34375 1.21875,1.34375 1.21875,3.71875 z m -2.89062,-0.82812 q -0.0469,-2.28125 -1.60938,-2.28125 -0.76562,0 -1.1875,0.5625 -0.42187,0.5625 -0.51562,1.84375 h 3.3125 z m 9.92324,-4.20313 q 0.54688,0 0.98438,0.125 l -0.46875,2.85938 q -0.54688,-0.125 -0.89063,-0.125 -0.875,0 -1.34375,0.60937 -0.45312,0.59375 -0.70312,1.8125 v 4.90625 h -2.95313 v -9.90625 h 2.57813 l 0.23437,1.92188 q 0.34375,-1.03125 1.01563,-1.60938 0.6875,-0.59375 1.54687,-0.59375 z m 10.63739,0.28125 -3.125,9.90625 h -3.48437 l -3.1875,-9.90625 h 3.20312 l 1.75,7.67188 1.82813,-7.67188 z m 9.53071,4.75 q 0,0.625 -0.0625,1.07813 h -6.14063 q 0.15625,1.25 0.71875,1.75 0.5625,0.5 1.54688,0.5 0.59375,0 1.15625,-0.20313 0.5625,-0.21875 1.21875,-0.67187 l 1.20312,1.64062 q -1.73437,1.375 -3.85937,1.375 -2.40625,0 -3.70313,-1.40625 -1.28125,-1.42187 -1.28125,-3.8125 0,-1.51562 0.53125,-2.71875 0.54688,-1.20312 1.59375,-1.89062 1.04688,-0.70313 2.5,-0.70313 2.15625,0 3.35938,1.34375 1.21875,1.34375 1.21875,3.71875 z m -2.89063,-0.82812 q -0.0469,-2.28125 -1.60937,-2.28125 -0.76563,0 -1.1875,0.5625 -0.42188,0.5625 -0.51563,1.84375 h 3.3125 z m 9.92325,-4.20313 q 0.54687,0 0.98437,0.125 l -0.46875,2.85938 q -0.54687,-0.125 -0.89062,-0.125 -0.875,0 -1.34375,0.60937 -0.45313,0.59375 -0.70313,1.8125 v 4.90625 h -2.95312 v -9.90625 h 2.57812 l 0.23438,1.92188 q 0.34375,-1.03125 1.01562,-1.60938 0.6875,-0.59375 1.54688,-0.59375 z"
       id="path834"
       inkscape:connector-curvature="0"
       style="fill:#38761d;fill-rule:nonzero" />
    <path
       d="m 195.36816,177.78786 q 1.01562,0 1.82812,0.29687 0.82813,0.29688 1.5625,0.90625 l -1.26562,1.76563 q -0.9375,-0.71875 -1.89063,-0.71875 -0.98437,0 -1.5,0.73437 -0.5,0.71875 -0.5,2.34375 0,1.5625 0.5,2.21875 0.51563,0.65625 1.46875,0.65625 0.5,0 0.90625,-0.15625 0.42188,-0.15625 1,-0.51562 l 1.28125,1.82812 q -1.46875,1.17188 -3.34375,1.17188 -1.5,0 -2.60937,-0.64063 -1.09375,-0.64062 -1.70313,-1.79687 -0.59375,-1.17188 -0.59375,-2.75 0,-1.5625 0.59375,-2.76563 0.60938,-1.21875 1.70313,-1.89062 1.10937,-0.6875 2.5625,-0.6875 z m 7.26447,10.53125 q -1.28125,0 -2,-0.73438 -0.71875,-0.73437 -0.71875,-2.09375 v -11.32812 l 2.95312,-0.3125 v 11.53125 q 0,0.60937 0.5,0.60937 0.26563,0 0.48438,-0.0937 l 0.57812,2.09375 q -0.79687,0.32813 -1.79687,0.32813 z m 7.11944,-10.53125 q 2.26563,0 3.54688,1.39062 1.29687,1.39063 1.29687,3.89063 0,1.57812 -0.59375,2.76562 -0.57812,1.1875 -1.67187,1.84375 -1.09375,0.64063 -2.57813,0.64063 -2.26562,0 -3.5625,-1.39063 -1.29687,-1.39062 -1.29687,-3.89062 0,-1.57813 0.57812,-2.76563 0.59375,-1.1875 1.6875,-1.82812 1.09375,-0.65625 2.59375,-0.65625 z m 0,2.15625 q -0.90625,0 -1.35937,0.76562 -0.4375,0.75 -0.4375,2.32813 0,1.625 0.4375,2.375 0.4375,0.75 1.35937,0.75 0.89063,0 1.32813,-0.75 0.45312,-0.76563 0.45312,-2.34375 0,-1.625 -0.4375,-2.375 -0.4375,-0.75 -1.34375,-0.75 z m 10.89527,-2.15625 q 1.01562,0 1.82812,0.29687 0.82813,0.29688 1.5625,0.90625 l -1.26562,1.76563 q -0.9375,-0.71875 -1.89063,-0.71875 -0.98437,0 -1.5,0.73437 -0.5,0.71875 -0.5,2.34375 0,1.5625 0.5,2.21875 0.51563,0.65625 1.46875,0.65625 0.5,0 0.90625,-0.15625 0.42188,-0.15625 1,-0.51562 l 1.28125,1.82812 q -1.46875,1.17188 -3.34375,1.17188 -1.5,0 -2.60937,-0.64063 -1.09375,-0.64062 -1.70313,-1.79687 -0.59375,-1.17188 -0.59375,-2.75 0,-1.5625 0.59375,-2.76563 0.60938,-1.21875 1.70313,-1.89062 1.10937,-0.6875 2.5625,-0.6875 z m 7.59259,-3.9375 v 14.15625 h -2.95313 v -13.84375 z m 6.10937,4.25 -3,4.34375 3.25,5.5625 h -3.32812 l -2.9375,-5.40625 3.01562,-4.5 z"
       id="path836"
       inkscape:connector-curvature="0"
       style="fill:#38761d;fill-rule:nonzero" />
    <path
       d="m 547.4869,139.08661 h 98.74017 v 48.34647 H 547.4869 Z"
       id="path838"
       inkscape:connector-curvature="0"
       style="fill:#000000;fill-opacity:0;fill-rule:evenodd" />
    <path
       d="m 578.5535,152.75661 q 1.20312,0 2.14062,0.35938 0.95313,0.35937 1.78125,1.0625 l -1.45312,1.73437 q -0.57813,-0.45312 -1.14063,-0.67187 -0.54687,-0.21875 -1.1875,-0.21875 -1.3125,0 -2.0625,1.10937 -0.75,1.09375 -0.75,3.375 0,2.26563 0.75,3.35938 0.75,1.09375 2.09375,1.09375 0.71875,0 1.29688,-0.26563 0.57812,-0.28125 1.25,-0.78125 l 1.35937,1.75 q -0.73437,0.73438 -1.76562,1.20313 -1.03125,0.45312 -2.28125,0.45312 -1.79688,0 -3.125,-0.78125 -1.3125,-0.78125 -2.0625,-2.3125 -0.73438,-1.54687 -0.73438,-3.71875 0,-2.09375 0.75,-3.625 0.76563,-1.53125 2.09375,-2.32812 1.34375,-0.79688 3.04688,-0.79688 z m 7.8219,13.5625 q -1.28125,0 -2,-0.73437 -0.71875,-0.73438 -0.71875,-2.09375 v -11.32813 l 2.95312,-0.3125 v 11.53125 q 0,0.60938 0.5,0.60938 0.26563,0 0.48438,-0.0937 l 0.57812,2.09375 q -0.79687,0.32812 -1.79687,0.32812 z m 5.86908,-10.21875 v 9.90625 h -2.95313 v -9.90625 z m -1.5,-5.21875 q 0.76562,0 1.25,0.48438 0.5,0.46875 0.5,1.1875 0,0.73437 -0.5,1.21875 -0.48438,0.46875 -1.25,0.46875 -0.76563,0 -1.25,-0.46875 -0.48438,-0.48438 -0.48438,-1.21875 0,-0.71875 0.48438,-1.1875 0.48437,-0.48438 1.25,-0.48438 z m 12.44855,9.96875 q 0,0.625 -0.0625,1.07813 h -6.14063 q 0.15625,1.25 0.71875,1.75 0.5625,0.5 1.54688,0.5 0.59375,0 1.15625,-0.20313 0.5625,-0.21875 1.21875,-0.67187 l 1.20312,1.64062 q -1.73437,1.375 -3.85937,1.375 -2.40625,0 -3.70313,-1.40625 -1.28125,-1.42187 -1.28125,-3.8125 0,-1.51562 0.53125,-2.71875 0.54688,-1.20312 1.59375,-1.89062 1.04688,-0.70313 2.5,-0.70313 2.15625,0 3.35938,1.34375 1.21875,1.34375 1.21875,3.71875 z m -2.89063,-0.82812 q -0.0469,-2.28125 -1.60937,-2.28125 -0.76563,0 -1.1875,0.5625 -0.42188,0.5625 -0.51563,1.84375 h 3.3125 z m 10.34509,-4.23438 q 1.29688,0 2.01563,0.78125 0.73437,0.78125 0.73437,2.20313 v 7.23437 h -2.95312 v -6.73437 q 0,-0.75 -0.23438,-1.03125 -0.23437,-0.29688 -0.6875,-0.29688 -0.90625,0 -1.71875,1.29688 v 6.76562 h -2.95312 v -9.90625 h 2.57812 l 0.20313,1.17188 q 0.64062,-0.75 1.375,-1.10938 0.73437,-0.375 1.64062,-0.375 z m 11.18659,9.75 q -0.54688,0.375 -1.26563,0.57813 -0.71875,0.20312 -1.42187,0.20312 -3.25,-0.0156 -3.25,-3.57812 v -4.59375 h -1.40625 v -2.04688 h 1.40625 v -2.14062 l 2.95312,-0.34375 v 2.48437 h 2.26563 l -0.3125,2.04688 h -1.95313 v 4.5625 q 0,0.6875 0.21875,0.98437 0.21875,0.29688 0.70313,0.29688 0.51562,0 1.0625,-0.3125 z"
       id="path840"
       inkscape:connector-curvature="0"
       style="fill:#674ea7;fill-rule:nonzero" />
    <path
       d="m 580.0532,177.78786 q 1.01562,0 1.82812,0.29687 0.82813,0.29688 1.5625,0.90625 l -1.26562,1.76563 q -0.9375,-0.71875 -1.89063,-0.71875 -0.98437,0 -1.5,0.73437 -0.5,0.71875 -0.5,2.34375 0,1.5625 0.5,2.21875 0.51563,0.65625 1.46875,0.65625 0.5,0 0.90625,-0.15625 0.42188,-0.15625 1,-0.51562 l 1.28125,1.82812 q -1.46875,1.17188 -3.34375,1.17188 -1.5,0 -2.60937,-0.64063 -1.09375,-0.64062 -1.70313,-1.79687 -0.59375,-1.17188 -0.59375,-2.75 0,-1.5625 0.59375,-2.76563 0.60938,-1.21875 1.70313,-1.89062 1.10937,-0.6875 2.5625,-0.6875 z m 7.26447,10.53125 q -1.28125,0 -2,-0.73438 -0.71875,-0.73437 -0.71875,-2.09375 v -11.32812 l 2.95312,-0.3125 v 11.53125 q 0,0.60937 0.5,0.60937 0.26563,0 0.48438,-0.0937 l 0.57812,2.09375 q -0.79687,0.32813 -1.79687,0.32813 z m 7.11944,-10.53125 q 2.26563,0 3.54688,1.39062 1.29687,1.39063 1.29687,3.89063 0,1.57812 -0.59375,2.76562 -0.57812,1.1875 -1.67187,1.84375 -1.09375,0.64063 -2.57813,0.64063 -2.26562,0 -3.5625,-1.39063 -1.29687,-1.39062 -1.29687,-3.89062 0,-1.57813 0.57812,-2.76563 0.59375,-1.1875 1.6875,-1.82812 1.09375,-0.65625 2.59375,-0.65625 z m 0,2.15625 q -0.90625,0 -1.35937,0.76562 -0.4375,0.75 -0.4375,2.32813 0,1.625 0.4375,2.375 0.4375,0.75 1.35937,0.75 0.89063,0 1.32813,-0.75 0.45312,-0.76563 0.45312,-2.34375 0,-1.625 -0.4375,-2.375 -0.4375,-0.75 -1.34375,-0.75 z m 10.8952,-2.15625 q 1.01563,0 1.82813,0.29687 0.82812,0.29688 1.5625,0.90625 l -1.26563,1.76563 q -0.9375,-0.71875 -1.89062,-0.71875 -0.98438,0 -1.5,0.73437 -0.5,0.71875 -0.5,2.34375 0,1.5625 0.5,2.21875 0.51562,0.65625 1.46875,0.65625 0.5,0 0.90625,-0.15625 0.42187,-0.15625 1,-0.51562 l 1.28125,1.82812 q -1.46875,1.17188 -3.34375,1.17188 -1.5,0 -2.60938,-0.64063 -1.09375,-0.64062 -1.70312,-1.79687 -0.59375,-1.17188 -0.59375,-2.75 0,-1.5625 0.59375,-2.76563 0.60937,-1.21875 1.70312,-1.89062 1.10938,-0.6875 2.5625,-0.6875 z m 7.59259,-3.9375 v 14.15625 h -2.95312 v -13.84375 z m 6.10938,4.25 -3,4.34375 3.25,5.5625 h -3.32813 l -2.9375,-5.40625 3.01563,-4.5 z"
       id="path842"
       inkscape:connector-curvature="0"
       style="fill:#674ea7;fill-rule:nonzero" />
    <path
       d="M 595.25854,229.60105 209.65222,332.93963"
       id="path844"
       inkscape:connector-curvature="0"
       style="fill:#000000;fill-opacity:0;fill-rule:evenodd" />
    <path
       d="M 595.25854,229.60105 221.24322,329.83337"
       id="path846"
       inkscape:connector-curvature="0"
       style="fill-rule:evenodd;stroke:#000000;stroke-width:2;stroke-linecap:butt;stroke-linejoin:round" />
    <path
       d="m 220.3881,326.6425 -7.91171,5.54028 9.62198,0.84145 z"
       id="path848"
       inkscape:connector-curvature="0"
       style="fill:#000000;fill-rule:evenodd;stroke:#000000;stroke-width:2;stroke-linecap:butt" />
    <path
       d="M 209.36877,375.1076 594.97503,478.44619"
       id="path850"
       inkscape:connector-curvature="0"
       style="fill:#000000;fill-opacity:0;fill-rule:evenodd" />
    <path
       d="M 209.36877,375.1076 583.38409,475.33993"
       id="path852"
       inkscape:connector-curvature="0"
       style="fill-rule:evenodd;stroke:#000000;stroke-width:2;stroke-linecap:butt;stroke-linejoin:round" />
    <path
       d="m 582.52893,478.5308 9.62201,-0.84143 -7.91174,-5.54031 z"
       id="path854"
       inkscape:connector-curvature="0"
       style="fill:#000000;fill-rule:evenodd;stroke:#000000;stroke-width:2;stroke-linecap:butt" />
    <path
       d="m 348.36142,254.07464 95.65353,-24.47244 11.96851,46.83465 -95.65353,24.47244 z"
       id="path856"
       inkscape:connector-curvature="0"
       style="fill:#000000;fill-opacity:0;fill-rule:evenodd" />
    <path
       d="m 370.08514,271.20728 -1.16556,0.29822 1.22248,4.78377 -2.95182,0.7552 -3.19934,-12.51955 4.10227,-1.04954 q 2.55822,-0.65451 4.08474,-0.0451 1.54169,0.60553 2.03299,2.52811 0.30948,1.21109 -0.0568,2.17573 -0.37018,0.94951 -1.48346,1.83107 l 4.54062,4.51548 -3.34537,0.85589 z m -1.68784,-1.74548 1.25641,-0.32145 q 0.98395,-0.25173 1.3674,-0.83369 0.38349,-0.58195 0.13202,-1.56596 -0.22824,-0.89318 -0.86248,-1.16637 -0.63816,-0.28833 -1.74317,-0.006 l -1.07477,0.27498 z m 14.42002,-9.75351 0.23498,2.18171 -4.42013,1.13086 0.76599,2.99742 3.86004,-0.98756 0.53388,2.08911 -3.86005,0.98757 0.81626,3.19423 4.7229,-1.20833 0.54547,2.13453 -7.67468,1.96354 -3.19935,-12.51955 z m 12.33505,9.31129 q 1.18072,-0.30208 2.11703,-0.2352 0.9325,0.0517 1.88178,0.42176 l -1.18658,2.80345 q -1.32724,-0.90232 -2.57575,-1.24414 -1.2485,-0.34185 -2.85306,0.0687 -1.68026,0.42988 -3.1037,-0.0285 -1.42343,-0.45837 -2.46087,-1.74125 -1.04129,-1.29804 -1.56742,-3.35688 -0.5184,-2.02856 -0.21633,-3.68641 0.30206,-1.65785 1.35729,-2.7665 1.07038,-1.11252 2.82633,-1.56176 2.67932,-0.6855 4.60382,0.66076 1.93573,1.32724 2.73654,4.46091 0.97876,3.83005 -1.55908,6.20506 z m -6.63025,-4.10986 q 0.59189,2.31619 1.47946,3.20196 0.90271,0.8819 2.17426,0.55658 1.30182,-0.33307 1.65936,-1.52127 0.3537,-1.20334 -0.24206,-3.53467 -0.59577,-2.33132 -1.4946,-3.19808 -0.8837,-0.87064 -2.17038,-0.54145 -1.28668,0.3292 -1.64038,1.53253 -0.35758,1.18821 0.23434,3.5044 z m 20.07803,-2.89502 q 0.32886,1.28677 0.028,2.44434 -0.28577,1.1537 -1.24378,2.01168 -0.958,0.85799 -2.54748,1.26464 -2.39169,0.61189 -3.94245,-0.28162 -1.55078,-0.89349 -2.07302,-2.93719 l -2.13547,-8.35647 2.95178,-0.7552 2.10452,8.23535 q 0.30951,1.21108 0.91449,1.68529 0.62015,0.47035 1.61924,0.21475 1.01422,-0.25949 1.31744,-0.96608 0.31836,-0.71045 0.009,-1.92154 l -2.10455,-8.23534 2.96692,-0.75907 z m 7.70832,-10.87494 0.23498,2.18171 -4.4201,1.13087 0.76593,2.99742 3.86004,-0.98757 0.53388,2.08912 -3.86005,0.98756 0.81629,3.19423 4.7229,-1.20833 0.54547,2.13454 -7.67468,1.96351 -3.19935,-12.51954 z m 5.59674,-1.7706 q 1.40777,-0.36018 2.54162,-0.21479 1.14502,0.12638 2.20166,0.72698 l -0.95233,1.95323 q -1.55359,-0.71536 -3.02191,-0.33969 -0.77203,0.19751 -1.1449,0.6316 -0.37677,0.41896 -0.22198,1.0245 0.10443,0.40874 0.37085,0.63088 0.26257,0.20701 0.82397,0.32143 0.5727,0.0954 1.66815,0.15382 2.08106,0.12883 3.20246,0.79351 1.13647,0.6608 1.55816,2.3109 0.29786,1.16567 -0.0755,2.22888 -0.36212,1.04422 -1.35461,1.83039 -0.9964,0.77101 -2.52527,1.16217 -1.54401,0.39503 -2.84851,0.21267 -1.30457,-0.18234 -2.36114,-0.78294 l 1.0769,-2.03351 q 0.88525,0.43479 1.72333,0.55905 0.84942,0.10526 1.75763,-0.12712 0.9234,-0.23623 1.34875,-0.78053 0.42536,-0.54428 0.23969,-1.27094 -0.11994,-0.46929 -0.39795,-0.73685 -0.27808,-0.26756 -0.83948,-0.38197 -0.55017,-0.13343 -1.53192,-0.18869 -2.25147,-0.10137 -3.36542,-0.8002 -1.11395,-0.69882 -1.47369,-2.1067 -0.27857,-1.08998 0.0878,-2.05462 0.3814,-0.96852 1.29858,-1.67089 0.91327,-0.71751 2.21509,-1.05057 z m 14.58111,-3.3918 0.27753,2.34824 -3.08801,0.79005 2.61902,10.24878 -2.96692,0.75906 -2.61908,-10.24876 -3.22425,0.82491 -0.58032,-2.27078 z"
       id="path858"
       inkscape:connector-curvature="0"
       style="fill:#666666;fill-rule:nonzero" />
    <path
       d="m 376.28714,382.18652 95.40158,25.35434 -10.96063,41.13385 -95.40158,-25.35434 z"
       id="path860"
       inkscape:connector-curvature="0"
       style="fill:#000000;fill-opacity:0;fill-rule:evenodd" />
    <path
       d="m 398.73172,410.89706 -1.16275,-0.30902 -1.2713,4.77103 -2.94467,-0.7826 3.32711,-12.4862 4.09232,1.08758 q 2.55203,0.67826 3.58615,1.95548 1.04926,1.28122 0.53833,3.1987 -0.32184,1.20785 -1.11294,1.87063 -0.78705,0.64771 -2.18927,0.87323 l 1.75503,6.15735 -3.33728,-0.8869 z m -0.61963,-2.34729 1.25336,0.3331 q 0.98157,0.26086 1.60058,-0.0596 0.61902,-0.32053 0.88053,-1.30191 0.23733,-0.89078 -0.18256,-1.43891 -0.41589,-0.5632 -1.51825,-0.85617 l -1.07214,-0.28494 z m 17.34885,-1.46823 -0.86121,2.0184 -4.40942,-1.17187 -0.79657,2.98944 3.85071,1.02337 -0.55518,2.08356 -3.85071,-1.02338 -0.84888,3.1857 4.71143,1.25214 -0.56726,2.12884 -7.65613,-2.03469 3.32715,-12.48621 z m 5.8598,1.55734 q 2.4765,0.65817 3.56201,2.04605 1.10065,1.39188 0.56555,3.39994 -0.56323,2.11373 -2.19287,2.82852 -1.62958,0.71481 -3.87964,0.11682 l -1.35907,-0.36118 -1.11035,4.16709 -2.94464,-0.7826 3.32709,-12.48617 z m -1.6344,6.19428 q 1.05707,0.28091 1.72943,-0.0577 0.67639,-0.35376 0.98218,-1.50122 0.52301,-1.96277 -1.66663,-2.54471 l -1.05707,-0.28092 -1.09027,4.09162 z m 11.36536,-3.60816 -2.7035,10.146 4.87757,1.29629 -0.9256,2.25995 -7.5202,-1.99859 3.32708,-12.48621 z m 14.34582,3.81262 -6.08166,6.74225 -1.24714,4.68045 -2.95977,-0.78662 1.2431,-4.66531 -1.91772,-8.8844 3.21649,0.85483 0.84601,6.10977 3.77484,-4.88172 z"
       id="path862"
       inkscape:connector-curvature="0"
       style="fill:#666666;fill-rule:nonzero" />
    <path
       d="m 161.77298,310.85826 h 59.55905 v 38.39371 h -59.55905 z"
       id="path864"
       inkscape:connector-curvature="0"
       style="fill:#000000;fill-opacity:0;fill-rule:evenodd" />
    <path
       d="m 163.92783,351.79265 h 59.55905 v 38.39369 h -59.55905 z"
       id="path868"
       inkscape:connector-curvature="0"
       style="fill:#000000;fill-opacity:0;fill-rule:evenodd" />
    <path
       d="m 583.1457,207.43044 h 59.55902 v 38.39371 H 583.1457 Z"
       id="path872"
       inkscape:connector-curvature="0"
       style="fill:#000000;fill-opacity:0;fill-rule:evenodd" />
    <path
       d="m 583.1457,454.85828 h 59.55902 v 38.39371 H 583.1457 Z"
       id="path876"
       inkscape:connector-curvature="0"
       style="fill:#000000;fill-opacity:0;fill-rule:evenodd" />
    <path
       d="m 770.8084,171.98163 h 189.19684 v 81.10236 H 770.8084 Z"
       id="path944"
       inkscape:connector-curvature="0"
       style="fill:#000000;fill-opacity:0;fill-rule:evenodd" />
  </g>
</svg>
