<?xml version="1.0" encoding="UTF-8" standalone="no"?>
<svg
   xmlns:dc="http://purl.org/dc/elements/1.1/"
   xmlns:cc="http://creativecommons.org/ns#"
   xmlns:rdf="http://www.w3.org/1999/02/22-rdf-syntax-ns#"
   xmlns:svg="http://www.w3.org/2000/svg"
   xmlns="http://www.w3.org/2000/svg"
   xmlns:sodipodi="http://sodipodi.sourceforge.net/DTD/sodipodi-0.dtd"
   xmlns:inkscape="http://www.inkscape.org/namespaces/inkscape"
   id="svg1903"
   version="1.1"
   viewBox="0 0 15.24 7.2194944"
   height="7.2194943mm"
   width="15.24mm"
   sodipodi:docname="rvar-light.svg"
   inkscape:version="0.92.5 (2060ec1f9f, 2020-04-08)">
  <sodipodi:namedview
     pagecolor="#ffffff"
     bordercolor="#666666"
     borderopacity="1"
     objecttolerance="10"
     gridtolerance="10"
     guidetolerance="10"
     inkscape:pageopacity="0"
     inkscape:pageshadow="2"
     inkscape:window-width="1848"
     inkscape:window-height="1016"
     id="namedview968"
     showgrid="false"
     inkscape:zoom="7.1288316"
     inkscape:cx="10.67934"
     inkscape:cy="11.839574"
     inkscape:window-x="1992"
     inkscape:window-y="27"
     inkscape:window-maximized="1"
     inkscape:current-layer="breadboard"
     fit-margin-top="0"
     fit-margin-left="0"
     fit-margin-right="0"
     fit-margin-bottom="0" />
  <defs
     id="defs1897" />
  <metadata
     id="metadata1900">
    <rdf:RDF>
      <cc:Work
         rdf:about="">
        <dc:format>image/svg+xml</dc:format>
        <dc:type
           rdf:resource="http://purl.org/dc/dcmitype/StillImage" />
        <dc:title></dc:title>
      </cc:Work>
    </rdf:RDF>
  </metadata>
  <g
     transform="translate(-58.822764,-50.716661)"
     id="layer1">
    <g
       id="icon"
       transform="matrix(0.35510404,0,0,0.35509199,58.822764,52.550947)">
      <!-- needed an id so fritzing could extract the element for either icon or breadboard view -->
      <g
         id="breadboard"
         style="display:inline">
        <rect
           y="3.5899999"
           width="2.5"
           height="2.9100001"
           id="connector0pin"
           x="0"
           style="fill:#868584" />
        <rect
           x="40.417"
           y="3.5899999"
           width="2.5"
           height="2.9100001"
           id="connector1pin"
           style="fill:#868584" />
        <rect
           y="3.5899999"
           width="42.917"
           height="2.9100001"
           id="rect8"
           x="0"
           style="fill:#868584" />
        <g
           transform="matrix(1.8597371,0,0,1.8598002,-599.5454,-191.52181)"
           id="g10148">
          <g
             id="g4804"
             transform="translate(321.75376,100.20224)">
            <path
               inkscape:connector-curvature="0"
               id="path4788"
               d="m 4.864,5.46499 c 0,2.178 0.959,4.12699 2.473,5.46699 h 9.655 C 18.509,9.59398 19.469,7.64599 19.469,5.46499 19.469,3.28799 18.509,1.339 16.992,0 H 7.336 C 5.823,1.337 4.864,3.28699 4.864,5.46499 Z" />
            <rect
               id="rect4790"
               height="10.932"
               x="7.336"
               width="9.6560001"
               y="0" />
            <path
               style="fill:#cccccc"
               inkscape:connector-curvature="0"
               id="path4792"
               d="m 17.009,10.306 c 0,0 -2.349,0.228999 -4.845,0.228999 -2.496,0 -4.844,-0.228999 -4.844,-0.228999 0,0 -0.224,-2.34402 -0.224,-4.84101 C 7.096,2.969 7.321,0.621 7.321,0.621 c 0,0 2.348,-0.228999 4.844,-0.228999 2.495,0 4.844,0.228999 4.844,0.228999 0,0 0.228,2.34799 0.228,4.84399 -0.005,2.49699 -0.228,4.84101 -0.228,4.84101 z" />
            <path
               style="fill:#8f0000"
               inkscape:connector-curvature="0"
               id="path4794"
               d="M 16.482,1.36 16.451,1.178 16.267,1.147 C 16.246,1.144 14.288,0.835001 12.163,0.835001 c -1.109,0 -2.163,0.0869998 -2.851,0.146 -0.691,0.0739998 -1.05,0.114 -1.244,0.164 -0.057,0 -0.105,0.021 -0.145,0.062 C 7.861,1.235 7.848,1.288 7.846,1.35 7.786,1.538 7.738,1.9 7.667,2.61299 c -0.053,0.536 -0.142,1.627 -0.142,2.857 0,2.136 0.32,4.08799 0.323,4.10499 l 0.031,0.181 0.181,0.03 c 0.019,0.004 1.971,0.31402 4.105,0.31402 2.138,0 4.086,-0.311999 4.104,-0.311999 l 0.184,-0.03 0.029,-0.181 c 0.004,-0.021 0.32,-1.979 0.32,-4.10499 C 16.802,3.3460211 16.484,1.379 16.482,1.36 Z M 8.326,9.30298 C 8.249,8.778981 8.036,7.18498 8.036,5.46499 8.036,3.66499 8.224,2.083 8.307,1.626 8.49,1.599 8.834,1.552 9.271,1.505 9.264,1.548 9.253,1.583 9.253,1.63 c 0,0.305999 0.188,0.820998 0.21,0.878998 0.045,0.118992 0.167,0.188992 0.292,0.161992 0.012,-0.002 1.157,-0.234999 2.41,-0.234999 1.188,0 2.271,0.209 2.39,0.229999 0.002,0.005 0.012,0.02 0.012,0.061 0,0.104 -0.049,0.270999 -0.103,0.415999 -0.282,-0.049 -0.815,-0.125 -1.434,-0.125 -0.887,0 -1.736,0.158 -1.771,0.165 -0.075,0.021 -0.138,0.062 -0.176,0.126 -0.017,0.03 -0.103,0.196 -0.103,0.520999 0,0.270999 0.071,0.645999 0.074,0.675999 0.013,0.062 0.051,0.127 0.107,0.165 0.057,0.039 0.127,0.052 0.195,0.039 0.003,0 0.389,-0.075 0.809,-0.075 0.26,0 0.495,0.028 0.646,0.05 0.021,0.065 0.021,0.147 0.021,0.240999 0,0.103 -0.012,0.204 -0.023,0.289999 h -0.645 -0.858 c -0.119,0 -0.222,0.081 -0.25,0.195 -0.003,0.012 -0.076,0.309999 -0.076,0.603999 0,0.300999 0.075,0.523999 0.082,0.550999 0.03,0.086 0.104,0.151 0.194,0.169 0.018,0.003 0.436,0.084 0.908,0.084 0.247,0 0.476,-0.02 0.645,-0.044 0.021,0.105 0.025,0.228999 0.025,0.334999 0,0.074 -0.009,0.119 -0.016,0.163 -0.28,0.044 -0.896,0.129 -1.521,0.129 -0.833,0 -1.535,-0.146 -1.542,-0.146 -0.1,-0.021 -0.2,0.016 -0.26,0.097 C 9.475,7.37698 9.264,7.66598 9.264,8.00998 9.264,8.354979 9.475,8.639979 9.5,8.670979 9.538,8.71998 9.592,8.75398 9.652,8.76698 c 0.048,0.012 1.207,0.245999 2.513,0.245999 0.985,0 1.885,-0.134 2.29,-0.203 0.054,0.177 0.105,0.383999 0.105,0.494999 0,0.083 -0.029,0.139 -0.062,0.179 -0.676,0.062 -1.486,0.113 -2.339,0.113 C 10.445,9.59298 8.85,9.38098 8.326,9.30298 Z m 7.676,0 c -0.189,0.028 -0.521,0.075 -0.941,0.12 0.006,-0.041 0.021,-0.075 0.021,-0.123 0,-0.303999 -0.188,-0.819998 -0.211,-0.876998 -0.044,-0.12 -0.167,-0.189 -0.292,-0.163 -0.017,0.002 -1.158,0.234999 -2.41,0.234999 -1.042,0 -2.001,-0.16 -2.303,-0.215 C 9.825,8.20798 9.782,8.09998 9.782,8.00598 c 0,-0.076 0.026,-0.156 0.056,-0.225 0.275,0.048 0.826,0.132 1.465,0.132 0.886,0 1.736,-0.159 1.771,-0.165 0.07,-0.021 0.139,-0.062 0.176,-0.128 0.02,-0.03 0.104,-0.194 0.104,-0.520999 0,-0.286999 -0.062,-0.659999 -0.062,-0.674999 -0.021,-0.066 -0.062,-0.126 -0.104,-0.162 -0.062,-0.039 -0.129,-0.053 -0.188,-0.041 -0.025,0.00501 -0.414,0.079008 -0.83,0.079008 -0.261,0 -0.496,-0.028 -0.647,-0.049 -0.012,-0.066 -0.022,-0.146 -0.022,-0.239999 0,-0.104 0.012,-0.204 0.025,-0.290999 h 0.644 0.855 c 0.119,0 0.226,-0.082 0.252,-0.196 0.002,-0.013 0.074,-0.311999 0.074,-0.603999 0,-0.301999 -0.074,-0.523999 -0.082,-0.551999 C 13.24,4.26999 13.165,4.21799 13.078,4.19999 c -0.02,-0.021 -0.437,-0.103 -0.909,-0.103 -0.248,0 -0.475,0.022 -0.645,0.062 -0.014,-0.106 -0.026,-0.228999 -0.026,-0.352999 0,-0.062 0.009,-0.104 0.015,-0.146 0.28,-0.044 0.896,-0.146 1.521,-0.146 0.829,0 1.532,0.153 1.541,0.154 0.118,0.026 0.239,-0.035 0.288,-0.146 0.021,-0.06 0.219,-0.491999 0.219,-0.811998 0,-0.375999 -0.264,-0.529999 -0.398,-0.561999 -0.05,-0.021 -1.207,-0.240999 -2.515,-0.240999 -0.985,0 -1.884,0.136 -2.291,0.2 -0.055,-0.188 -0.11,-0.391999 -0.11,-0.491999 0,-0.081 0.031,-0.146 0.06,-0.187 0.681,-0.062 1.498,-0.104 2.339,-0.104 1.72,0 3.312,0.212 3.838,0.285999 0.076,0.520999 0.289,2.115 0.289,3.83999 C 16.289,7.18398 16.08,8.77798 16.002,9.30298 Z" />
            <circle
               style="fill:#8c8c8c"
               id="circle4796"
               r="1.3789999"
               cy="5.4659901"
               cx="6.4330001" />
            <circle
               style="fill:#8c8c8c"
               id="circle4798"
               r="1.3789999"
               cy="5.4649901"
               cx="17.895" />
          </g>
          <path
             style="opacity:0.2;stroke-width:1"
             inkscape:connector-curvature="0"
             id="path4800"
             d="m 338.74576,100.20224 h -9.656 c -1.51299,1.337 -2.472,3.28699 -2.472,5.46499 0,2.178 0.95901,4.12699 2.473,5.46699 h 9.655 c 1.51701,-1.338 2.47701,-3.28599 2.47701,-5.46699 -0.003,-2.178 -0.96201,-4.12799 -2.47701,-5.46499 z m -5.124,9.66098 c -2.485,0 -4.49999,-2.021 -4.49999,-4.49999 0,-2.48499 2.01499,-4.50099 4.49999,-4.50099 2.48301,0 4.501,2.016 4.501,4.50099 0,2.48399 -2.01499,4.49999 -4.501,4.49999 z" />
        </g>
      </g>
    </g>
  </g>
</svg>
