<?xml version="1.0" encoding="UTF-8" standalone="no"?>
<svg
   xmlns:dc="http://purl.org/dc/elements/1.1/"
   xmlns:cc="http://creativecommons.org/ns#"
   xmlns:rdf="http://www.w3.org/1999/02/22-rdf-syntax-ns#"
   xmlns:svg="http://www.w3.org/2000/svg"
   xmlns="http://www.w3.org/2000/svg"
   xmlns:sodipodi="http://sodipodi.sourceforge.net/DTD/sodipodi-0.dtd"
   xmlns:inkscape="http://www.inkscape.org/namespaces/inkscape"
   id="svg1903"
   version="1.1"
   viewBox="0 0 16.464192 16.234512"
   height="16.234512mm"
   width="16.464191mm"
   sodipodi:docname="rvar-temp.svg"
   inkscape:version="0.92.5 (2060ec1f9f, 2020-04-08)">
  <sodipodi:namedview
     pagecolor="#ffffff"
     bordercolor="#666666"
     borderopacity="1"
     objecttolerance="10"
     gridtolerance="10"
     guidetolerance="10"
     inkscape:pageopacity="0"
     inkscape:pageshadow="2"
     inkscape:window-width="1848"
     inkscape:window-height="1016"
     id="namedview968"
     showgrid="false"
     inkscape:zoom="8.1932373"
     inkscape:cx="4.3806516"
     inkscape:cy="21.695394"
     inkscape:window-x="1992"
     inkscape:window-y="27"
     inkscape:window-maximized="1"
     inkscape:current-layer="g9505"
     fit-margin-top="0"
     fit-margin-left="0"
     fit-margin-right="0"
     fit-margin-bottom="0" />
  <defs
     id="defs1897">
    <linearGradient
       y2="-335.05099"
       id="SVGID_1_"
       gradientTransform="matrix(1,0,0,-1,273,-448.8574)"
       x1="-192.873"
       x2="-182.577"
       y1="-335.05099"
       gradientUnits="userSpaceOnUse">
      <stop
         style="stop-color:#333333"
         offset="0"
         id="stop2993" />
      <stop
         style="stop-color:#3C3C3C"
         offset="1"
         id="stop2995" />
    </linearGradient>
  </defs>
  <metadata
     id="metadata1900">
    <rdf:RDF>
      <cc:Work
         rdf:about="">
        <dc:format>image/svg+xml</dc:format>
        <dc:type
           rdf:resource="http://purl.org/dc/dcmitype/StillImage" />
        <dc:title></dc:title>
      </cc:Work>
    </rdf:RDF>
  </metadata>
  <g
     transform="translate(-29.26519,-30.851805)"
     id="layer1">
    <g
       transform="matrix(0.352777,0,0,0.352777,-119.97295,-44.455356)"
       partID="855222110"
       id="g9341">
      <path
         id="path9317"
         d="m 436.60853,230.79466 c -10e-4,9.5e-4 -10e-4,9.5e-4 -2.19127,1.1165 -1.31406,0.64912 -2.34972,1.6442 -3.06015,2.9344 -0.72607,1.28837 -1.2467,2.83405 -1.95566,5.00268 l -6.36327,19.58415 3.41391,0.0416 5.88698,-18.67127 -9.7e-4,-3.2e-4 c 0.69172,-2.14279 1.20142,-3.56106 1.7034,-4.43289 0.51497,-0.87195 0.90226,-1.24086 1.77718,-1.7079 2.19062,-1.11455 2.19094,-1.11551 2.19094,-1.11551 z"
         inkscape:connector-curvature="0"
         style="fill:#8c8c8c;stroke-width:1.42999995"
         sodipodi:nodetypes="cccccccccccc" />
      <path
         id="path9319"
         d="m 463.34386,239.84756 v 0 c -0.70748,-2.16806 -1.22831,-3.71363 -1.95438,-5.00201 -0.71108,-1.28891 -1.74805,-2.28464 -3.06243,-2.93474 -2.18768,-1.1155 -2.18768,-1.1155 -2.188,-1.11649 l -1.40144,2.7537 2.18867,1.11518 c 0.87589,0.46671 1.26316,0.83562 1.77815,1.70757 0.50228,0.87283 1.0115,2.29012 1.70309,4.43195 l 0.006,-0.001 -0.006,0.001 5.74585,18.68606 3.55506,-0.0564 -6.36329,-19.58415 z"
         inkscape:connector-curvature="0"
         style="fill:#8c8c8c;stroke-width:1.42999995"
         sodipodi:nodetypes="ccccccccccccccc" />
      <path
         id="path9333"
         d="m 444.18723,216.73793 c -0.63114,-0.0114 -1.14904,0.26049 -1.15418,0.60438 -10e-4,0.14825 0.10494,0.28314 0.26667,0.39434 0.49317,0.0628 0.99047,0.11011 1.49189,0.14414 0.30991,-0.10714 0.52818,-0.28314 0.5323,-0.49936 0.004,-0.34595 -0.50347,-0.6332 -1.13668,-0.6435 z"
         inkscape:connector-curvature="0"
         style="opacity:0.55;fill:#ffffff;stroke-width:1.42999995" />
      <g
         transform="matrix(1.690004,0,0,1.690004,-313.23105,89.838971)"
         partID="855234200"
         id="g9509">
        <g
           transform="translate(440.11,87.3194)"
           id="g9507">
          <g
             id="g9505">
            <g
               style="fill:none;stroke:#8c8c8c;stroke-width:2.16000009;stroke-linecap:round"
               y1="22.998"
               x1="1.5"
               id="g9492"
               y2="41.25"
               x2="1.5" />
            <g
               style="fill:none;stroke:#8c8c8c;stroke-width:2.16000009;stroke-linecap:round"
               y1="22.998"
               x1="21.5"
               id="g9494"
               y2="41.25"
               x2="21.5" />
            <g
               id="g866"
               transform="translate(1.1178499,-14.165361)">
              <rect
                 height="0.72000003"
                 x="0"
                 width="2.1600001"
                 y="9.1800003"
                 id="rect9488"
                 style="fill:none" />
              <rect
                 height="0.72000003"
                 x="14.4"
                 width="2.1600001"
                 y="9.1800003"
                 id="rect9490"
                 style="fill:none" />
              <circle
                 r="6.5051999"
                 cy="6.5051999"
                 id="circle14"
                 cx="8.2799997"
                 style="fill:#555555" />
              <path
                 d="M 1.98,8.08056 C 2.0772,8.43264 1.93464,8.59896 1.77768,8.8452 1.62,9.09288 1.40904,9.2376 1.10232,9.6552 0.85464,9.99288 0.72144,10.3378 0.60696,10.7352 0.4932,11.1326 0.58536,11.4106 0.58536,11.4106 L 2.43,12.6929 c 0,0 0.18504,-0.0749 0.3456,-0.2563 0.10512,-0.1181 0.34344,-0.319 0.4644,-0.4407 0.24768,-0.2477 0.40464,-0.3017 0.67464,-0.3017 0.28296,0 0.44568,0.0036 0.71568,0.1966 C 4.93488,12.109 6.1056,10.8706 6.1056,10.8706 L 3.51072,9.1152 2.35584,7.70544 c -7.2e-4,0 -0.47304,0.02232 -0.37584,0.37512 z"
                 id="path9499"
                 inkscape:connector-curvature="0"
                 style="fill:#555555" />
              <path
                 d="m 14.58,8.08056 c -0.0972,0.35208 0.0446,0.5184 0.2016,0.76464 0.1584,0.24768 0.3694,0.3924 0.6754,0.81 0.2476,0.33768 0.3816,0.6826 0.4953,1.08 0.1116,0.3974 0.0202,0.6754 0.0202,0.6754 l -1.8447,1.2823 c 0,0 -0.1843,-0.0749 -0.3456,-0.2563 -0.1051,-0.1181 -0.3434,-0.319 -0.4644,-0.4407 -0.2484,-0.2477 -0.4046,-0.3017 -0.6753,-0.3017 -0.2823,0 -0.4457,0.0036 -0.7157,0.1966 -0.3046,0.2182 -1.4753,-1.0202 -1.4753,-1.0202 l 2.5949,-1.7554 1.1549,-1.40976 c 0.0036,0 0.4752,0.02232 0.3787,0.37512 z"
                 id="path20"
                 inkscape:connector-curvature="0"
                 style="fill:#555555" />
              <path
                 d="m 13.1904,11.8807 c -0.22104,-0.4464 -0.94968,-1.01016 -1.37808,-1.01016 -0.42768,0 -2.0916,0.31464 -2.8116,0.31464 -0.72,0 -2.47536,-0.36 -3.0384,-0.36 -0.60192,0 -1.21536,0.09 -1.6416,0.22464 -0.38592,0.12168 -0.77976,0.27 -1.22976,0.94464 -0.11448,0.17208 -0.19152,0.2844 -0.2412,0.3672 0.1188,-0.11736 0.29088,-0.26784 0.39096,-0.3672 0.24768,-0.24768 0.40464,-0.30168 0.67464,-0.30168 0.28296,0 0.44568,0.0036 0.71568,0.19656 h 7.2e-4 c 1.0404,0.70632 2.29608,1.12032 3.64896,1.12032 1.35288,0 2.60856,-0.41328 3.64824,-1.12032 h 7.2e-4 c 0.27,-0.19368 0.43488,-0.19656 0.71568,-0.19656 0.22034,7.2e-4 0.36574,0.04252 0.54504,0.18792 z"
                 id="path22"
                 inkscape:connector-curvature="0"
                 style="opacity:0.3" />
              <path
                 d="m 14.3338,9.22032 c 0.29016,0.13536 1.22688,0.65952 1.5768,1.38816 C 15.80548,10.2636 15.67588,9.95616 15.45484,9.65592 15.14812,9.23832 14.93716,9.0936 14.77948,8.84592 14.63044,8.61048 14.4994,8.44416 14.57356,8.12376 c 0.13248,-0.5184 0.21096,-1.0584 0.21096,-1.61784 0,-1.1664 -0.3132,-2.25792 -0.85032,-3.20472 0.04464,0.23184 0.07416,0.46224 0.07416,0.68472 0,0.68976 -0.11808,1.75176 -0.198,2.39112 -0.072,0.56448 -0.35568,1.05912 -0.35568,1.73376 7.2e-4,0.56232 0.70482,1.0296 0.87912,1.10952 z"
                 id="path24"
                 inkscape:connector-curvature="0"
                 style="opacity:0.3" />
              <path
                 d="M 6.75,1.0224 C 6.30864,1.01448 5.94648,1.20456 5.94288,1.44504 5.94144,1.54872 6.01632,1.64304 6.12936,1.7208 6.47424,1.76472 6.822,1.79784 7.17264,1.8216 7.38936,1.74672 7.542,1.6236 7.54488,1.4724 7.54776,1.23048 7.1928,1.0296 6.75,1.0224 Z"
                 id="path26"
                 inkscape:connector-curvature="0"
                 style="opacity:0.4;fill:#ffffff" />
            </g>
          </g>
        </g>
      </g>
    </g>
  </g>
</svg>
