<?xml version="1.0" encoding="UTF-8" standalone="no"?>
<svg
   xmlns:dc="http://purl.org/dc/elements/1.1/"
   xmlns:cc="http://creativecommons.org/ns#"
   xmlns:rdf="http://www.w3.org/1999/02/22-rdf-syntax-ns#"
   xmlns:svg="http://www.w3.org/2000/svg"
   xmlns="http://www.w3.org/2000/svg"
   xmlns:sodipodi="http://sodipodi.sourceforge.net/DTD/sodipodi-0.dtd"
   xmlns:inkscape="http://www.inkscape.org/namespaces/inkscape"
   id="svg1903"
   version="1.1"
   viewBox="0 0 15.240001 3.55092"
   height="3.55092mm"
   width="15.240001mm"
   sodipodi:docname="resistor.svg"
   inkscape:version="0.92.5 (2060ec1f9f, 2020-04-08)">
  <sodipodi:namedview
     pagecolor="#ffffff"
     bordercolor="#666666"
     borderopacity="1"
     objecttolerance="10"
     gridtolerance="10"
     guidetolerance="10"
     inkscape:pageopacity="0"
     inkscape:pageshadow="2"
     inkscape:window-width="1608"
     inkscape:window-height="986"
     id="namedview968"
     showgrid="false"
     inkscape:zoom="2.3699126"
     inkscape:cx="-77.079315"
     inkscape:cy="155.70058"
     inkscape:window-x="72"
     inkscape:window-y="27"
     inkscape:window-maximized="1"
     inkscape:current-layer="layer1"
     fit-margin-top="0"
     fit-margin-left="0"
     fit-margin-right="0"
     fit-margin-bottom="0" />
  <defs
     id="defs1897" />
  <metadata
     id="metadata1900">
    <rdf:RDF>
      <cc:Work
         rdf:about="">
        <dc:format>image/svg+xml</dc:format>
        <dc:type
           rdf:resource="http://purl.org/dc/dcmitype/StillImage" />
        <dc:title></dc:title>
      </cc:Work>
    </rdf:RDF>
  </metadata>
  <g
     transform="translate(-58.822764,-52.550947)"
     id="layer1">
    <g
       id="icon"
       transform="matrix(0.35510404,0,0,0.35509199,58.822764,52.550947)">
      <!-- needed an id so fritzing could extract the element for either icon or breadboard view -->
      <g
         id="breadboard"
         style="display:inline">
        <rect
           y="3.5899999"
           width="2.5"
           height="2.9100001"
           id="connector0pin"
           x="0"
           style="fill:#868584" />
        <rect
           x="40.417"
           y="3.5899999"
           width="2.5"
           height="2.9100001"
           id="connector1pin"
           style="fill:#868584" />
        <rect
           y="3.5899999"
           width="42.917"
           height="2.9100001"
           id="rect8"
           x="0"
           style="fill:#868584" />
        <path
           inkscape:connector-curvature="0"
           id="Body_1_"
           d="M 15.347,0.414 C 14.847,0.186 13.987,0 13.437,0 h -3 c -1,0 -2,1 -2,2 v 6 c 0,1 1,2 2,2 h 3 c 0.55,0 1.409,-0.187 1.91,-0.414 L 15.45,9.539 c 0.501,-0.228 1.36,-0.414 1.91,-0.414 h 8.155 c 0.549,0 1.408,0.187 1.91,0.414 l 0.104,0.047 c 0.5,0.228 1.359,0.414 1.91,0.414 h 3 c 1,0 2,-1 2,-2 V 2 c 0,-1 -1,-2 -2,-2 h -3 c -0.551,0 -1.41,0.186 -1.91,0.413 L 27.425,0.46 c -0.5,0.228 -1.361,0.413 -1.91,0.413 H 17.36 c -0.55,0 -1.41,-0.186 -1.91,-0.414 z"
           style="fill:#d9b578" />
        <path
           inkscape:connector-curvature="0"
           d="m 13.62,0.006 c 0.341,0 0.817,0.122 0.817,0.122 v 9.744 c 0,0 -0.488,0.113 -0.709,0.113 -0.221,0 -2.291,0.014 -2.291,0.014 V 0 c 0,0 1.842,0.006 2.183,0.006 z"
           id="path11"
           style="fill:#893e19" />
        <path
           inkscape:connector-curvature="0"
           d="m 17.372,0.873 c 0.417,0 2.065,0.001 2.065,0.001 v 8.251 c 0,0 -1.773,0 -2.086,0 -0.313,0 -0.914,0.11 -0.914,0.11 V 0.761 c 0,0 0.519,0.112 0.935,0.112 z"
           id="path13" />
        <rect
           x="21.438"
           y="0.87400001"
           width="3"
           height="8.2510004"
           id="rect15"
           style="fill:#c3111d" />
        <rect
           x="30.114"
           width="1.149"
           height="10"
           id="rect17"
           y="0"
           style="opacity:0.5;fill:#f5e731" />
        <path
           inkscape:connector-curvature="0"
           id="Reflex_1_"
           d="m 8.937,4.5 c 0,0 0,-2 0,-2.5 0,-0.5 0.5,-1.5 1.5,-1.5 1,0 2,0 3,0 1,0 3,1 3.5,1 0.5,0 8.001,0 9.001,0 1,0 2.5,-1 3.5,-1 0.042,0 0.312,0 0.676,0 0.78,0 1.991,0 2.324,0 0.5,0 1.5,0.5 1.5,1 0,1.5 0.094,-0.5 -2,-0.5 -1.5,0 -1.5,0 -2.5,0 -1,0 -2.5,1 -3.5,1 -1,0 -8.001,0 -9.001,0 -1,0 -2.5,-1 -3.5,-1 -1,0 -2,0 -3,0 -0.5,0 -1,0.5 -1,1 0,0.5 0,2 -0.5,2.5 z"
           style="opacity:0.4;fill:#ffffff" />
        <path
           inkscape:connector-curvature="0"
           id="Shaddow_1_"
           d="m 34.438,5.5 c 0,0 0,2 0,2.5 0,1 -1,2 -2,2 -1,0 -2,0 -3,0 -1.259,0 -2.806,-0.891 -3.728,-0.891 -0.5,0 -7.273,0.016 -8.273,0.016 -1.414,0 -2.633,0.875 -3.633,0.875 -0.133,0 -2.88,0 -3.367,0 -0.676,0 -2,-0.781 -2,-2 0,-0.09 0,-0.402 0,-0.5 0,-1.5 0.405,1.5 2.5,1.5 1.5,0 1.5,0 2.5,0 1,0 2.5,-1 3.5,-1 1,0 8.001,0 9.001,0 1,0 2.5,1 3.5,1 1,0 1,0 2,0 0.5,0 2,0 2,-1.5 0,-0.5 0.5,-2 1,-2 z"
           style="opacity:0.4" />
      </g>
    </g>
  </g>
</svg>
