<?xml version="1.0" encoding="UTF-8" standalone="no"?>
<svg
   xmlns:dc="http://purl.org/dc/elements/1.1/"
   xmlns:cc="http://creativecommons.org/ns#"
   xmlns:rdf="http://www.w3.org/1999/02/22-rdf-syntax-ns#"
   xmlns:svg="http://www.w3.org/2000/svg"
   xmlns="http://www.w3.org/2000/svg"
   width="15.240001mm"
   height="3.55092mm"
   viewBox="0 0 15.240001 3.55092"
   version="1.1"
   id="svg1903">
  <defs
     id="defs1897" />
  <metadata
     id="metadata1900">
    <rdf:RDF>
      <cc:Work
         rdf:about="">
        <dc:format>image/svg+xml</dc:format>
        <dc:type
           rdf:resource="http://purl.org/dc/dcmitype/StillImage" />
        <dc:title></dc:title>
      </cc:Work>
    </rdf:RDF>
  </metadata>
  <g
     id="layer1"
     transform="translate(-58.822764,-52.550947)">
    <g
       transform="matrix(0.4927241,0,0,0.4927241,39.843448,-13.631875)"
       id="g5835"
       partID="855213230">
      <g
         id="g5833"
         transform="translate(38.5341,134.329)">
        <g
           id="g5831">
          <rect
             style="fill:none"
             width="0.72000003"
             height="0.72000003"
             x="0.36000001"
             y="2.5848"
             id="rect5799" />
          <rect
             style="fill:none"
             width="0.72000003"
             height="0.72000003"
             x="29.8202"
             y="2.5848"
             id="rect5801" />
          <line
             style="fill:none;stroke:#8c8c8c;stroke-width:2.09520006;stroke-linecap:round"
             y2="3.6324"
             x2="2.0952001"
             y1="3.6324"
             x1="1.0476"
             id="line5803" />
          <line
             style="fill:none;stroke:#8c8c8c;stroke-width:2.09520006;stroke-linecap:round"
             y2="3.6324"
             x2="28.805"
             y1="3.6324"
             x1="29.8526"
             id="line5805" />
          <path
             style="fill:none;stroke:#8c8c8c;stroke-width:2.09520006"
             id="path5807"
             d="M 1.0476,3.6324 H 29.4142" />
          <path
             style="fill:#d9b477"
             d="M 10.2478,0.49536 C 9.8878,0.32976 9.2686,0.20016 8.8726,0.20016 H 6.8854 c -0.396,0 -0.72,0.324 -0.72,0.72 v 5.35608 c 0,0.39672 0.324,0.72 0.72,0.72 h 1.9872 c 0.396,0 1.0152,-0.13608 1.3752,-0.2952 l 0.072,-0.03528 c 0.36,-0.1656 0.9792,-0.2952 1.3752,-0.2952 h 7.1856 c 0.39672,0 1.01448,0.13608 1.37448,0.2952 l 0.07272,0.03528 c 0.36,0.1656 0.97776,0.2952 1.3752,0.2952 h 1.9872 c 0.39744,0 0.72,-0.32328 0.72,-0.72 V 0.92016 c 0,-0.396 -0.32256,-0.72 -0.72,-0.72 H 21.703 c -0.39744,0 -1.0152,0.1368 -1.3752,0.2952 l -0.07272,0.036 c -0.36,0.1656 -0.97776,0.2952 -1.37448,0.2952 H 11.695 c -0.396,0 -1.0152,-0.1368 -1.3752,-0.2952 z"
             id="path5809" />
          <rect
             style="fill:#ad9f4e"
             width="0.70271999"
             height="6.7953601"
             x="22.018999"
             y="0.19368"
             id="rect5811" />
          <rect
             style="fill:#8a3d06"
             width="1.8504"
             height="5.5367999"
             x="16.1726"
             y="0.82656002"
             id="rect5813" />
          <rect
             style="fill:#8c8c8c"
             width="1.8504"
             height="5.5367999"
             x="12.4726"
             y="0.82656002"
             id="rect5815" />
          <path
             style="fill:#0060b6"
             d="m 10.6286,0.63936 c -0.1152,-0.036 -0.2232,-0.072 -0.3096,-0.1152 l -0.072,-0.036 C 9.887,0.32328 9.2678,0.19296 8.8718,0.19296 H 8.7854 v 6.79608 h 0.0864 c 0.396,0 1.0152,-0.13608 1.3752,-0.2952 l 0.072,-0.03528 c 0.0864,-0.04464 0.1944,-0.07992 0.3096,-0.1152 z"
             id="path5817" />
          <path
             style="opacity:0.3"
             d="m 23.711,4.0896 v 0 c 0,0.37944 -0.13032,0.69912 -0.2952,0.69912 h -1.9224 c -0.38016,0 -0.97776,-0.05616 -1.33272,-0.1224 L 20.088,4.65048 C 19.74312,4.58568 19.13904,4.52808 18.75456,4.52808 H 11.808 c -0.3816,0 -0.9792,0.0576 -1.332,0.1224 L 10.404,4.6656 C 10.0584,4.73112 9.4608,4.788 9.072,4.788 H 8.7552 7.7544 7.4448 c -0.3816,0 -0.6984,0.29376 -0.6984,0.64512 V 5.68008 5.8392 6.012 c 0,0.36 0.3168,0.64512 0.6984,0.64512 h 1.62 c 0.3816,0 0.9792,-0.1224 1.332,-0.26712 l 0.072,-0.02808 c 0.3456,-0.14112 0.9504,-0.26496 1.332,-0.26496 h 6.94656 c 0.37944,0 0.97704,0.12384 1.33416,0.26568 l 0.07416,0.02808 c 0.34488,0.14472 0.94464,0.26712 1.33344,0.26712 h 2.2248 c 0.38088,0 0.69912,-0.2952 0.69912,-0.64512 L 24.413,5.472 V 4.49928 2.65536 c -0.2772,0.108 -0.702,0.4104 -0.702,1.43424 z"
             id="path5819" />
          <rect
             style="opacity:0.4"
             width="0.70271999"
             height="3.15288"
             x="22.018999"
             y="3.4833601"
             id="rect5821" />
          <path
             style="opacity:0.25;fill:#ffffff"
             d="m 19.751,1.08576 c 0.22968,0 0.49104,-0.1008 0.6624,-0.1728 0.2016,-0.0792 0.57672,-0.144 0.96624,-0.144 h 1.46088 c 0.22464,0 0.22464,0.2448 0.22464,0.3744 0,0.1296 -0.01512,0.3816 -0.22464,0.3816 h -3.06 c -0.10728,0 -0.2304,-0.1152 -0.2304,-0.22392 C 19.5566,1.21536 19.6286,1.08576 19.751,1.08576 Z"
             id="path5823" />
          <circle
             style="opacity:0.35;fill:#ffffff"
             cx="6.9998398"
             cy="1.13616"
             r="0.43200001"
             id="circle5825" />
          <rect
             style="opacity:0.5;fill:#ffff33"
             width="0.70271999"
             height="1.62"
             x="22.018999"
             y="0.42335999"
             id="rect5827" />
          <rect
             style="opacity:0.5;fill:#ffffff"
             width="0.70271999"
             height="0.74879998"
             x="22.018999"
             y="0.78336"
             id="rect5829" />
        </g>
      </g>
    </g>
  </g>
</svg>
